<svg width="2951" height="1699" viewBox="0 0 2951 1699" fill="none" xmlns="http://www.w3.org/2000/svg">
<path d="M225.883 842.996C227.74 850.081 228.426 856.547 227.94 862.395C227.413 868.086 226.443 873.052 225.031 877.292C223.618 881.532 222.136 884.865 220.585 887.291C219.191 889.676 218.436 890.967 218.32 891.166L216.453 893.674L212.899 893.596C203.299 892.916 194.927 892.755 187.786 893.113C180.802 893.43 174.004 894.455 167.391 896.188C162.511 897.468 157.833 899.199 153.357 901.382L155.517 903.844L157.019 905.722L156.569 907.859C154.954 925.445 156.355 942.661 160.771 959.507C162.876 967.537 165.59 975.322 168.913 982.864C172.236 990.406 176.446 997.799 181.542 1005.04L183.168 1007.39L182.719 1009.53C182.644 1009.89 182.149 1011.53 181.235 1014.46C180.28 1017.24 178.384 1020.6 175.547 1024.54C172.669 1028.32 168.39 1032.22 162.712 1036.23C157.191 1040.2 149.786 1043.4 140.497 1045.84C131.208 1048.27 123.163 1049.04 116.363 1048.13C109.719 1047.18 104.195 1045.68 99.7899 1043.64C95.5008 1041.4 92.3175 1039.2 90.2402 1037.06C88.1215 1034.75 87.021 1033.44 86.9384 1033.13L85.4985 1031.48L85.7621 1028.64C87.1132 1019.03 87.4577 1009.43 86.7957 999.848C86.1336 990.263 84.5644 980.747 82.088 971.3C80.3545 964.688 78.2068 958.1 75.6448 951.536C73.2403 944.932 70.2228 938.235 66.5923 931.447L65.7875 928.377C65.6544 920.167 65.1689 912.218 64.3311 904.529C63.6095 896.642 62.2581 888.919 60.277 881.362C58.0895 873.018 55.2348 865.017 51.7129 857.359C48.1909 849.701 44.2173 842.245 39.792 834.992L38.7006 832.755L39.15 830.618C40.3849 821.208 40.6751 812.046 40.0208 803.131C39.4825 794.018 38.099 785.211 35.8703 776.709C34.0542 769.781 31.7078 763.077 28.8309 756.596C26.0702 749.917 22.6591 743.323 18.5977 736.816L16.8482 733.994L18.1184 731.137C18.2345 730.938 18.9315 729.746 20.2094 727.56C21.4459 725.217 23.5278 722.568 26.4549 719.613C29.4982 716.459 33.4899 713.394 38.4302 710.416C43.3291 707.281 49.4785 704.744 56.8782 702.804C65.3799 700.575 72.9317 699.857 79.5336 700.65C86.1354 701.444 91.5977 702.704 95.9205 704.431C100.362 702.762 104.979 700.794 109.769 698.529C114.56 696.263 119.247 693.604 123.831 690.552L125.473 689.112L128.194 688.903C136.37 689.284 143.379 689.381 149.219 689.196C155.176 688.813 160.674 687.96 165.712 686.64C171.222 685.195 176.783 682.98 182.394 679.995C188.005 677.009 194.454 673.047 201.741 668.108L204.265 666.185L207.296 667.157C207.495 667.273 208.745 667.87 211.047 668.95C213.349 670.029 216.036 671.932 219.107 674.661C222.136 677.232 225.256 680.789 228.466 685.332C231.793 689.676 234.62 695.328 236.95 702.289L238.065 706.54C239.715 712.838 240.393 718.633 240.099 723.927C239.804 729.22 239.087 733.867 237.948 737.867C236.926 741.669 235.775 744.662 234.498 746.848C233.377 748.993 232.759 750.164 232.643 750.363L230.776 752.871L226.986 752.855C218.975 753.105 212.19 753.537 206.631 754.154C201.03 754.612 195.947 755.44 191.381 756.637C186.028 758.04 180.84 760.073 175.817 762.736C170.911 765.2 165.067 768.583 158.287 772.885L155.104 774.224C148.162 774.698 141.538 775.425 135.232 776.404C129.085 777.343 122.941 778.617 116.8 780.227C118.428 784.511 120.214 788.755 122.157 792.957C124.216 796.96 126.531 800.98 129.104 805.017L129.971 808.323C129.769 811.405 129.725 814.445 129.838 817.444C130.067 820.244 130.338 823.202 130.65 826.317C135.546 826.38 140.024 826.131 144.084 825.572C148.301 824.971 152.614 824.093 157.022 822.937C162.847 821.41 168.627 819.39 174.362 816.877C180.056 814.206 186.157 810.84 192.664 806.779L195.25 805.091L198.107 806.361C198.306 806.478 199.498 807.175 201.684 808.452C203.986 809.532 206.614 811.535 209.569 814.462C212.64 817.19 215.643 820.946 218.58 825.729C221.632 830.313 224.067 836.068 225.883 842.996ZM583.512 886.29L583.187 888.899C583.228 889.056 582.854 890.837 582.063 894.241C581.431 897.604 579.542 901.632 576.398 906.327C573.37 910.822 568.706 915.494 562.405 920.343C556.221 924.993 547.697 928.742 536.833 931.59C529.749 933.447 523.56 934.228 518.266 933.933C512.931 933.481 508.202 932.449 504.078 930.838C497.125 933.839 490.374 937.291 483.826 941.195C477.394 944.901 471.205 949.215 465.261 954.139L464.092 955.455L462.551 955.354C458.615 956.386 454.795 957.219 451.091 957.853C447.545 958.447 443.883 959.238 440.104 960.229C427.351 963.572 414.556 968.357 401.718 974.583C389.037 980.767 378.066 988.018 368.805 996.335L366.691 997.899L364.677 997.922C365.191 997.956 363.886 997.793 360.764 997.434C357.641 997.075 353.798 995.895 349.235 993.894C344.714 992.051 339.982 989.084 335.04 984.996C330.214 980.708 326.355 974.653 323.463 966.83C318.593 965.583 314.391 963.992 310.855 962.059C307.436 959.926 304.55 957.906 302.199 955.999C300.006 954.05 298.388 952.371 297.345 950.962C296.262 949.395 295.699 948.533 295.658 948.375L294.566 946.137L294.954 943.764C296.542 937.627 297.819 931.908 298.785 926.607C299.751 921.306 300.364 916.266 300.626 911.486C300.846 906.549 300.672 901.715 300.105 896.984C299.654 892.054 298.706 886.834 297.262 881.324C295.569 874.869 293.198 867.75 290.149 859.968L289.816 856.775C291.31 845.783 291.886 835.788 291.547 826.791C291.365 817.753 290.159 808.983 287.931 800.481C286.651 795.6 285.036 790.724 283.086 785.851C281.094 780.82 278.903 775.674 276.514 770.411L275.423 768.173L275.996 766.508C277.76 758.474 279.059 751.235 279.893 744.791C280.686 738.189 280.929 731.731 280.62 725.418C277.433 722.889 274.292 719.253 271.198 714.512C268.221 709.571 265.741 703.323 263.76 695.766C261.119 685.689 260.232 677.172 261.1 670.214C262.084 663.058 263.676 657.256 265.876 652.809C268.233 648.322 270.584 645.097 272.93 643.136C275.277 641.175 276.607 640.153 276.922 640.07L279.036 638.506L281.409 638.894C290.669 640.841 299.719 641.666 308.559 641.367C317.357 640.912 326.401 639.466 335.69 637.031C339.468 636.041 343.877 634.885 348.915 633.564C353.911 632.086 358.271 630.102 361.993 627.612L363.994 626.582L366.131 627.032C375.665 628.739 384.321 629.667 392.1 629.815C399.879 629.963 407.431 629.245 414.755 627.661C418.237 624.898 422.233 622.168 426.742 619.471C431.251 616.775 436.655 614.601 442.952 612.95C449.25 611.299 455.046 610.621 460.339 610.916C465.591 611.053 470.118 611.633 473.919 612.656C477.878 613.637 480.93 614.688 483.075 615.808C485.377 616.888 486.706 617.465 487.062 617.539L490.043 619.282L489.841 622.364C489.925 629.745 490.32 636.708 491.027 643.253C491.849 649.6 493.024 655.686 494.551 661.511C496.615 669.383 499.404 676.813 502.918 683.8C506.549 690.588 510.97 697.505 516.182 704.552L517.499 705.721L517.522 707.734C518.145 713.965 518.865 719.918 519.679 725.593C520.453 731.111 521.541 736.547 522.945 741.9C525.627 752.133 529.23 761.705 533.754 770.615C538.393 779.326 544.155 787.827 551.04 796.118L552.356 797.287L552.03 799.896C552.114 807.278 552.468 814.084 553.092 820.314C553.675 826.387 554.688 832.178 556.133 837.689C558.32 846.033 561.49 853.952 565.642 861.445C569.752 868.78 575.229 876.515 582.072 884.648L583.512 886.29ZM369.231 753.424L369.13 754.965C367.371 766.867 366.624 777.496 366.889 786.849C367.112 796.045 368.338 804.893 370.567 813.395C371.888 818.433 373.523 823.389 375.474 828.262C377.424 833.135 379.752 838.161 382.456 843.341L383.423 845.107L383.036 847.48C380.864 857.809 379.447 866.845 378.785 874.591C378.24 882.137 378.701 889.672 380.168 897.196C383.823 895.733 387.772 894.108 392.015 892.323C396.259 890.538 400.324 888.715 404.211 886.854C408.214 884.795 411.861 882.661 415.152 880.453C418.6 878.203 421.357 875.881 423.422 873.489L425.064 872.049L427.077 872.026C432.917 871.841 438.497 871.304 443.817 870.414C449.294 869.483 454.551 868.357 459.589 867.037C466.516 865.22 473.32 862.932 480 860.171C478.016 855.812 475.754 851.357 473.215 846.807C470.792 842.057 467.993 837.155 464.816 832.098L463.601 829.388C462.725 818.344 460.966 807.784 458.325 797.708C455.642 787.475 451.981 778.002 447.341 769.291C442.818 760.381 437.23 751.582 430.578 742.894L429.138 741.252L428.991 738.767C429.113 732.173 428.962 725.819 428.537 719.704C428.112 713.59 427.293 707.579 426.081 701.671C423.794 701.934 421.528 702.276 419.283 702.696C417.195 703.075 415.127 703.533 413.081 704.07C408.672 705.226 404.347 706.696 400.103 708.482C395.86 710.267 391.385 712.45 386.677 715.03L383.011 715.486C378.238 715.896 373.839 716.124 369.813 716.17C365.746 716.058 361.62 716.046 357.436 716.133C357.741 718.578 358.182 720.902 358.759 723.106C359.337 725.31 359.915 727.514 360.493 729.718C361.401 733.182 362.487 736.683 363.751 740.222C365.173 743.719 366.814 747.411 368.674 751.298L369.231 753.424ZM796.98 667.536L797.251 670.494L794.788 672.654C785.71 679.745 777.643 687.16 770.586 694.899C763.644 702.44 757.718 710.64 752.805 719.499C757.38 726.04 762.557 731.666 768.335 736.376C774.071 740.93 781.25 745.526 789.869 750.165L791.905 752.155C798.131 764.993 805.759 776.118 814.788 785.529C823.975 794.899 835.118 802.747 848.218 809.071L850.417 809.757L851.036 812.119C851.119 812.433 851.353 813.97 851.74 816.729C852.284 819.447 852.206 823.001 851.506 827.391C850.964 831.74 849.402 836.692 846.82 842.249C844.239 847.805 839.942 853.559 833.93 859.509C829.245 864.103 824.607 867.59 820.015 869.972C815.622 872.47 811.615 874.193 807.994 875.142C804.688 876.009 801.693 876.458 799.008 876.488C796.324 876.519 794.013 876.368 792.075 876.035C790.137 875.701 788.613 875.344 787.503 874.962C786.393 874.579 785.739 874.33 785.54 874.214L783.876 873.641L782.784 871.403C780.387 865.469 777.621 860.053 774.486 855.154C771.508 850.214 768.1 845.555 764.26 841.177C760.42 836.799 756.129 832.624 751.385 828.652C746.8 824.638 741.8 820.648 736.386 816.683C734.398 815.522 733.049 814.866 732.336 814.716L730.548 813.671L730.053 811.781C726.853 804.712 723.645 798.57 720.427 793.356C717.325 787.944 713.697 783.09 709.543 778.795C704.21 785.409 699.257 792.512 694.686 800.105C690.271 807.656 686.47 815.299 683.281 823.033C683.297 824.375 683.528 825.577 683.974 826.637C684.42 827.698 684.809 828.858 685.139 830.118C687.326 838.462 690.102 846.484 693.467 854.183C696.79 861.725 701 869.119 706.096 876.364L707.536 878.006L707.272 880.851C707.197 881.207 706.703 882.851 705.789 885.783C704.834 888.557 702.917 891.836 700.039 895.619C697.161 899.402 692.862 903.222 687.142 907.077C681.621 911.048 674.216 914.251 664.927 916.686C655.638 919.122 647.593 919.884 640.792 918.975C634.191 918.182 628.687 916.764 624.282 914.722C619.992 912.481 616.809 910.287 614.732 908.14C612.655 905.992 611.575 904.761 611.492 904.446L609.866 902.096L610.316 899.959C611.626 890.193 611.97 880.596 611.349 871.168C610.687 861.582 609.077 851.909 606.518 842.148C604.784 835.535 602.657 829.026 600.137 822.62C597.732 816.015 594.735 809.397 591.146 802.766L590.341 799.696C590.208 791.486 589.702 783.458 588.823 775.612C588.06 767.567 586.729 759.924 584.831 752.682C582.602 744.18 579.727 736.1 576.205 728.442C572.683 720.784 568.688 713.25 564.222 705.84L563.254 704.074L563.704 701.937C565.933 682.844 564.778 664.638 560.238 647.32C558.381 640.235 556.014 633.452 553.137 626.971C550.418 620.449 547.027 613.934 542.966 607.427L541.278 604.841L542.548 601.984C542.664 601.785 543.129 600.99 543.942 599.599C544.714 598.051 545.996 596.201 547.787 594.048C549.537 591.739 551.938 589.343 554.989 586.86C557.998 584.22 561.741 581.809 566.217 579.626C567.97 574.119 570.385 569.531 573.462 565.864C576.497 562.04 579.483 558.986 582.417 556.702C585.51 554.377 588.175 552.669 590.412 551.577C592.808 550.445 594.142 549.758 594.416 549.518L597.013 548.837L599.274 549.759C604.913 552.656 610.983 555.271 617.484 557.605C623.985 559.939 630.677 561.718 637.56 562.942C644.443 564.166 651.497 564.757 658.721 564.714C665.903 564.514 673.116 563.464 680.358 561.566L684.806 562.166C692.548 566.026 699.769 569.181 706.469 571.631C713.285 573.882 720.093 575.463 726.894 576.372C733.694 577.281 740.665 577.557 747.806 577.199C754.948 576.842 762.674 575.826 770.985 574.152L774.179 573.819L776.687 575.686C776.769 576 777.191 576.647 777.953 577.625C778.871 578.562 779.914 579.972 781.08 581.853C782.205 583.577 783.375 585.795 784.591 588.505C785.922 591.016 787.042 594.004 787.95 597.467C788.775 600.616 789.348 604.084 789.667 607.87C790.144 611.615 790.211 615.72 789.867 620.185C789.355 627.217 788.003 633.293 785.811 638.41C788.616 642.05 790.729 645.618 792.151 649.115C793.689 652.414 794.809 655.402 795.51 658.078C796.212 660.755 796.612 662.921 796.709 664.578C796.807 666.235 796.898 667.221 796.98 667.536ZM678.968 652.538L675.65 652.399C668.759 650.503 662.324 648.741 656.344 647.112C650.323 645.325 644.563 643.89 639.063 642.808C640.59 648.634 642.59 654.335 645.062 659.913C647.492 665.333 650.337 670.729 653.596 676.1L654.524 679.642C654.055 693.899 655 707.449 657.357 720.292C659.216 717.112 660.838 713.995 662.224 710.939C663.768 707.842 664.881 705.027 665.563 702.493L668.362 698.73C677.721 692.07 686.166 684.808 693.695 676.945C701.341 668.884 707.91 659.926 713.404 650.073C702.817 649.483 691.338 650.305 678.968 652.538ZM1076.48 672.756L1076.1 675.129C1074.48 692.716 1075.57 708.751 1079.37 723.235C1081.23 730.32 1083.71 737.24 1086.83 743.994C1090.1 750.708 1094.13 757.728 1098.91 765.056L1100.77 767.344L1100.09 769.543C1100.01 769.899 1099.52 771.543 1098.61 774.475C1097.65 777.249 1095.73 780.528 1092.86 784.311C1089.98 788.095 1085.78 791.972 1080.26 795.943C1074.69 799.757 1067.27 802.882 1057.98 805.317C1048.69 807.752 1040.67 808.593 1033.91 807.842C1027.26 806.891 1021.82 805.374 1017.57 803.291C1013.28 801.05 1010.1 798.856 1008.02 796.708C1005.94 794.56 1004.79 793.35 1004.55 793.076L1002.98 790.962L1003.37 788.589C1004.72 778.981 1005.19 769.856 1004.77 761.215C1004.36 752.574 1003.04 744.003 1000.81 735.501C999.282 729.676 997.32 723.796 994.923 717.862C992.643 711.73 989.708 705.348 986.118 698.717L985.314 695.647C985.413 687.04 985.006 679.07 984.093 671.738C983.181 664.405 981.837 657.354 980.062 650.584C976.306 636.257 970.069 622.412 961.35 609.05L959.848 607.172L960.297 605.035C961.532 595.625 961.744 586.484 960.932 577.611C960.236 568.539 958.931 559.711 957.018 551.126L954.656 551.745C938.597 555.955 923.38 563.057 909.006 573.051L907.241 574.019L904.631 573.693C904.316 573.776 902.714 573.439 899.823 572.682C896.933 571.926 893.459 570.228 889.402 567.59C885.503 564.91 881.609 560.968 877.72 555.761C873.633 550.439 870.392 543.212 867.998 534.081C865.769 525.579 865.134 518.342 866.092 512.37C867.009 506.24 868.472 501.23 870.481 497.338C872.605 493.247 874.683 490.263 876.715 488.384C878.862 486.307 880.073 485.148 880.346 484.908L881.988 483.468L884.597 483.794C892.185 484.497 899.587 484.491 906.803 483.777C913.978 482.906 921.266 481.5 928.665 479.561C935.278 477.827 942.301 475.734 949.734 473.28C957.284 470.628 964.113 467.155 970.223 462.861L971.864 461.421L974.001 461.871C982.732 462.442 990.805 462.429 998.22 461.831C1005.79 461.192 1013.12 459.944 1020.21 458.087C1032.96 454.743 1046.33 448.63 1060.32 439.746L1062.91 438.058L1065.77 439.328C1065.97 439.444 1067.22 440.042 1069.52 441.121C1071.82 442.2 1074.43 444.125 1077.34 446.894C1080.37 449.465 1083.41 453.043 1086.46 457.627C1089.63 462.012 1092.18 467.569 1094.12 474.298C1095.97 481.383 1096.74 487.829 1096.41 493.636C1096.04 499.285 1095.23 504.209 1093.97 508.408C1092.83 512.409 1091.57 515.601 1090.17 517.986C1088.74 520.213 1088 521.583 1087.97 522.097L1086.1 524.605L1082.55 524.527C1073.86 524.113 1066.01 524.321 1058.99 525.151C1052.09 525.783 1045.33 526.965 1038.72 528.699L1031.87 530.494C1032.13 532.781 1032.61 534.927 1033.3 536.932C1033.96 538.78 1034.53 540.649 1035.03 542.538C1036.76 549.151 1038.85 555.503 1041.28 561.594C1043.88 567.644 1046.87 573.591 1050.25 579.434L1050.99 582.268C1050.94 591.704 1051.26 600.287 1051.94 608.016C1052.78 615.705 1054.12 623.092 1055.98 630.177C1057.88 637.419 1060.37 644.339 1063.44 650.936C1066.52 657.533 1070.39 664.259 1075.04 671.115L1076.48 672.756ZM1423.77 546.631C1424.58 548.438 1425.31 550.265 1425.97 552.113C1426.58 553.804 1427.13 555.593 1427.63 557.483C1428.86 562.206 1429.59 566.896 1429.8 571.552C1430.13 576.009 1430.19 580.114 1430 583.866C1429.76 587.461 1429.46 590.485 1429.1 592.937C1428.85 595.19 1428.66 596.416 1428.55 596.614L1427.52 600.416C1425.08 600.72 1422.5 601.144 1419.78 601.689C1417.06 602.233 1414.13 602.918 1410.98 603.743C1409.72 604.073 1408.46 604.404 1407.2 604.734C1406.1 605.023 1404.96 605.49 1403.78 606.135C1404.14 609.407 1404.67 612.717 1405.38 616.065C1406.24 619.371 1407.09 622.599 1407.92 625.748C1410.27 634.722 1413.23 643.452 1416.8 651.938C1420.37 660.425 1424.09 668.199 1427.96 675.261L1428.93 677.026L1428.54 679.399C1428.47 679.756 1427.92 681.499 1426.88 684.629C1425.85 687.76 1423.86 691.395 1420.91 695.534C1418.07 699.475 1413.99 703.489 1408.67 707.576C1403.31 711.506 1396.37 714.586 1387.87 716.814C1379.21 719.085 1371.53 719.922 1364.81 719.328C1358.25 718.692 1352.65 717.552 1348.01 715.907C1343.49 714.064 1339.99 712.288 1337.53 710.579C1335.18 708.671 1333.88 707.581 1333.64 707.307L1331.6 705.317L1331.87 702.472C1332.68 694.014 1332.77 684.736 1332.14 674.637C1331.51 664.537 1330.28 655.018 1328.44 646.077C1323.97 648.26 1319.57 650.758 1315.26 653.57C1310.91 656.226 1306.84 658.976 1303.04 661.822C1299.24 664.669 1295.7 667.532 1292.42 670.412C1289.25 673.093 1286.46 675.592 1284.04 677.909L1281.45 679.597C1278.3 680.422 1274.39 681.533 1269.7 682.929C1265.18 684.283 1260.71 685.538 1256.31 686.694C1259.2 694.517 1262.06 701.255 1264.89 706.907C1267.67 712.402 1270.05 716.323 1272.01 718.669L1273.63 721.019L1273.18 723.156C1273.11 723.512 1272.61 725.156 1271.7 728.088C1270.74 730.862 1268.83 734.141 1265.95 737.924C1263.07 741.708 1258.79 745.606 1253.11 749.618C1247.55 753.432 1240.13 756.556 1230.84 758.992C1221.55 761.427 1213.52 762.268 1206.77 761.516C1200.12 760.566 1194.6 759.069 1190.19 757.027C1185.9 754.787 1182.72 752.592 1180.64 750.445C1178.57 748.297 1177.49 747.066 1177.4 746.751L1175.78 744.401L1176.23 742.264C1177.54 732.498 1177.88 722.901 1177.26 713.473C1176.6 703.887 1174.99 694.214 1172.43 684.453C1170.7 677.84 1168.57 671.331 1166.05 664.925C1163.64 658.32 1160.65 651.702 1157.06 645.071L1156.25 642.001C1156.12 633.791 1155.63 625.842 1154.8 618.154C1154.07 610.266 1152.72 602.544 1150.74 594.987C1148.51 586.485 1145.64 578.405 1142.12 570.747C1138.59 563.089 1134.6 555.555 1130.13 548.145L1129.17 546.379L1129.61 544.242C1131.84 525.149 1130.71 507.022 1126.21 489.861C1124.4 482.934 1122.05 476.23 1119.17 469.748C1116.45 463.226 1113.06 456.712 1109 450.205L1107.31 447.618L1108.58 444.761C1108.7 444.563 1109.4 443.37 1110.67 441.185C1111.91 438.841 1113.99 436.192 1116.92 433.238C1119.96 430.084 1123.95 427.018 1128.9 424.041C1133.79 420.906 1139.94 418.368 1147.34 416.428C1154.9 414.447 1161.7 413.758 1167.75 414.36C1173.75 414.804 1178.88 415.733 1183.12 417.145C1187.52 418.516 1190.93 419.978 1193.35 421.529C1195.78 423.08 1197.09 423.914 1197.29 424.03L1200.27 425.773L1199.66 429.214C1199.09 438.617 1199.12 447.696 1199.73 456.453C1200.46 465.012 1201.92 473.463 1204.11 481.807C1205.84 488.42 1207.93 494.772 1210.37 500.863C1212.92 506.755 1215.97 512.603 1219.51 518.405L1220.44 521.948C1220.21 530.083 1220.46 537.758 1221.17 544.974C1222.04 552.149 1223.43 559.358 1225.33 566.6C1227.1 573.37 1229.33 580.273 1232.02 587.309C1234.66 594.187 1237.92 601.493 1241.8 609.226L1248.48 602.932L1251.66 601.593C1252.49 601.544 1253.56 601.433 1254.86 601.261C1256 601.129 1257.3 600.956 1258.76 600.742C1260.18 600.371 1261.91 599.917 1263.95 599.38C1269.78 597.853 1276.82 595.167 1285.06 591.323C1293.43 587.28 1302.02 581.24 1310.85 573.204C1310.38 570.131 1309.83 567.077 1309.21 564.045C1308.58 561.012 1307.88 558 1307.09 555.009C1304.78 546.192 1301.92 537.855 1298.52 529.999C1295.11 522.142 1291.46 514.939 1287.55 508.391L1286.56 504.613C1287.64 488.849 1286.33 473.882 1282.61 459.712C1280.43 451.368 1277.51 443.466 1273.88 436.007C1270.35 428.349 1265.97 420.918 1260.71 413.714L1258.49 411.015L1259.29 408.282C1259.4 408.083 1260.02 406.576 1261.13 403.761C1262.24 400.945 1264.26 397.724 1267.18 394.099C1270.06 390.315 1274.04 386.579 1279.13 382.889C1284.38 379.157 1291.02 376.239 1299.05 374.134C1307.08 372.029 1314.45 371.274 1321.17 371.869C1327.89 372.463 1333.72 373.541 1338.67 375.103C1343.59 376.508 1347.43 378.024 1350.21 379.65C1353.15 381.235 1354.72 382.086 1354.92 382.202L1358.03 384.417L1357.89 387.734C1356.9 398.089 1356.82 408.038 1357.63 417.582C1358.61 427.085 1360.28 436.324 1362.63 445.298C1364.28 451.596 1366.25 457.811 1368.53 463.943C1370.96 470.034 1373.83 475.844 1377.13 481.373L1378 484.679C1377.56 490.685 1377.45 497.022 1377.68 503.692C1377.88 510.203 1378.81 517.279 1380.47 524.919C1381.21 523.884 1381.97 522.928 1382.75 522.05C1383.49 521.015 1384.21 519.902 1384.9 518.709L1387.51 519.035C1387.87 519.11 1389.37 519.389 1392.02 519.872C1394.79 520.156 1398.02 521.244 1401.71 523.137C1405.36 524.871 1409.18 527.572 1413.17 531.237C1417.16 534.902 1420.7 540.034 1423.77 546.631ZM1612.62 479.457C1614.47 486.542 1615.16 493.008 1614.67 498.856C1614.15 504.547 1613.18 509.513 1611.76 513.753C1610.35 517.993 1608.87 521.326 1607.32 523.752C1605.92 526.137 1605.17 527.428 1605.05 527.627L1603.19 530.135L1599.63 530.057C1590.03 529.377 1581.66 529.216 1574.52 529.574C1567.54 529.891 1560.74 530.916 1554.13 532.649C1549.24 533.929 1544.57 535.66 1540.09 537.843L1542.25 540.305L1543.75 542.183L1543.3 544.32C1542.33 556.016 1542.52 567.325 1543.87 578.245C1546.22 576.954 1548.91 575.66 1551.94 574.363C1554.96 573.065 1557.85 571.887 1560.6 570.829C1563.35 569.771 1565.65 568.916 1567.5 568.263C1569.35 567.611 1570.35 567.264 1570.51 567.222L1572.21 566.019L1574.41 566.704C1584.33 567.973 1592.69 568.726 1599.48 568.964C1606.28 569.203 1612.9 568.476 1619.36 566.784C1623.77 565.628 1628.44 563.897 1633.39 561.59C1638.34 559.283 1643.89 556.397 1650.05 552.932L1652.64 551.245L1655.49 552.515C1655.73 552.788 1656.87 553.585 1658.9 554.904C1661.04 556.024 1663.51 558.069 1666.31 561.037C1669.07 563.848 1671.91 567.645 1674.85 572.428C1677.74 577.053 1680.12 582.908 1681.98 589.993C1683.68 597.119 1684.18 603.548 1683.5 609.28C1682.81 615.012 1681.77 619.998 1680.35 624.239C1678.9 628.321 1677.4 631.576 1675.85 634.002C1674.29 636.427 1673.46 637.74 1673.35 637.938L1670.65 640.16L1667.56 639.958C1657.37 638.93 1649.01 638.512 1642.5 638.705C1635.95 638.74 1629.76 639.521 1623.93 641.048C1619.84 642.121 1615.69 643.629 1611.49 645.572C1607.25 647.358 1602.4 649.722 1596.95 652.667L1593.64 653.533C1589.02 653.902 1584.39 654.192 1579.73 654.403C1575.19 654.415 1570.6 654.527 1565.94 654.738C1564.82 656.882 1563.27 659.308 1561.29 662.015C1559.42 664.523 1556.88 667.04 1553.67 669.563C1550.62 672.046 1546.86 674.378 1542.38 676.561C1538.11 678.86 1533.06 680.773 1527.23 682.3C1517.94 684.736 1509.9 685.498 1503.1 684.589C1496.45 683.638 1490.93 682.142 1486.52 680.1C1482.23 677.859 1479.05 675.665 1476.97 673.517C1474.86 671.212 1473.75 669.902 1473.67 669.588L1472.23 667.946L1472.5 665.101C1473.85 655.492 1474.19 645.895 1473.53 636.309C1472.87 626.724 1471.3 617.208 1468.82 607.761C1467.09 601.149 1464.94 594.561 1462.38 587.997C1459.97 581.393 1456.96 574.696 1453.33 567.908L1452.52 564.838C1452.39 556.628 1451.9 548.679 1451.06 540.99C1450.34 533.103 1448.99 525.38 1447.01 517.823C1444.82 509.479 1441.97 501.478 1438.45 493.82C1434.92 486.162 1430.95 478.706 1426.53 471.453L1425.43 469.216L1425.88 467.079C1427.12 457.669 1427.41 448.507 1426.75 439.592C1426.22 430.479 1424.83 421.672 1422.6 413.17C1420.79 406.242 1418.44 399.538 1415.56 393.057C1412.8 386.378 1409.39 379.784 1405.33 373.277L1403.58 370.455L1404.85 367.598C1404.97 367.399 1405.67 366.207 1406.94 364.021C1408.18 361.678 1410.26 359.029 1413.19 356.074C1416.23 352.92 1420.22 349.855 1425.16 346.877C1430.06 343.742 1436.21 341.205 1443.61 339.265C1452.11 337.036 1459.67 336.318 1466.27 337.111C1472.87 337.905 1478.33 339.165 1482.65 340.892C1487.1 339.223 1491.71 337.255 1496.5 334.99C1501.29 332.724 1505.98 330.065 1510.56 327.013L1512.21 325.573L1514.93 325.364C1523.1 325.745 1530.11 325.842 1535.95 325.657C1541.91 325.274 1547.41 324.421 1552.45 323.101C1557.96 321.656 1563.52 319.441 1569.13 316.456C1574.74 313.47 1581.19 309.508 1588.47 304.569L1591 302.646L1594.03 303.618C1594.23 303.734 1595.48 304.331 1597.78 305.411C1600.08 306.49 1602.77 308.393 1605.84 311.122C1608.87 313.693 1611.99 317.25 1615.2 321.793C1618.53 326.137 1621.35 331.789 1623.68 338.75L1624.8 343.001C1626.45 349.299 1627.13 355.094 1626.83 360.388C1626.54 365.681 1625.82 370.328 1624.68 374.328C1623.66 378.13 1622.51 381.123 1621.23 383.309C1620.11 385.454 1619.49 386.625 1619.38 386.824L1617.51 389.332L1613.72 389.316C1605.71 389.566 1598.92 389.998 1593.36 390.615C1587.76 391.073 1582.68 391.901 1578.11 393.098C1572.76 394.501 1567.57 396.534 1562.55 399.197C1557.64 401.661 1551.8 405.044 1545.02 409.346L1541.84 410.685C1534.9 411.159 1528.27 411.886 1521.97 412.865C1515.82 413.804 1509.67 415.078 1503.53 416.688C1505.16 420.972 1506.95 425.216 1508.89 429.418C1510.95 433.421 1513.27 437.441 1515.84 441.478L1516.7 444.784C1516.5 447.866 1516.46 450.906 1516.57 453.905C1516.8 456.705 1517.07 459.663 1517.38 462.778C1522.28 462.841 1526.76 462.592 1530.82 462.033C1535.03 461.432 1539.35 460.554 1543.76 459.398C1549.58 457.871 1555.36 455.851 1561.1 453.338C1566.79 450.667 1572.89 447.301 1579.4 443.24L1581.98 441.552L1584.84 442.822C1585.04 442.939 1586.23 443.636 1588.42 444.913C1590.72 445.993 1593.35 447.996 1596.3 450.923C1599.37 453.651 1602.38 457.407 1605.31 462.19C1608.37 466.774 1610.8 472.529 1612.62 479.457ZM1991.72 219.553L1991.52 222.635C1990.99 232.194 1990.96 241.373 1991.42 250.172C1992.03 258.929 1993.43 267.479 1995.62 275.824C1997.27 282.121 1999.39 288.295 2001.99 294.345C2004.7 300.196 2007.84 306.102 2011.43 312.062L2012.29 315.368C2011.79 333.336 2013.62 350.271 2017.79 366.172C2019.93 374.359 2022.65 382.145 2025.93 389.529C2029.21 396.914 2033.18 404.034 2037.84 410.889L2038.89 414.904C2037.89 423.916 2037.69 432.801 2038.31 441.558C2039.08 450.274 2040.56 458.804 2042.74 467.148C2046.91 483.05 2053.8 498.071 2063.39 512.213L2065.02 514.563L2064.57 516.7C2064.49 517.057 2064 518.7 2063.09 521.632C2062.13 524.407 2060.21 527.685 2057.33 531.469C2054.46 535.252 2050.26 539.129 2044.74 543.1C2039.17 546.914 2031.83 550.018 2022.7 552.412C2015.14 554.393 2008.5 555.377 2002.77 555.363C1997.01 555.192 1991.98 554.322 1987.7 552.752L1985.34 553.371C1981.09 554.485 1977.21 555.082 1973.7 555.162C1970.14 555.084 1967.14 554.862 1964.69 554.495C1962.19 553.971 1960.19 553.401 1958.69 552.787C1957.3 551.974 1956.48 551.43 1956.24 551.157L1953.98 550.235L1953.36 547.873C1948.36 532.021 1941.03 517.537 1931.37 504.422C1921.7 491.308 1909.41 479.052 1894.47 467.655L1892.91 465.541C1888.21 455.331 1882.89 445.956 1876.95 437.418C1871.17 428.838 1864.68 420.78 1857.49 413.242C1859.75 420.56 1862.33 427.537 1865.25 434.176C1868.33 440.773 1872.01 447.126 1876.31 453.236L1877.81 455.114L1877.36 457.251C1876.47 466.064 1876.39 474.75 1877.12 483.309C1877.81 491.71 1879.25 500.082 1881.44 508.426C1883.58 516.613 1886.34 524.556 1889.7 532.256C1893.02 539.798 1897.23 547.191 1902.33 554.436L1903.96 556.786L1903.51 558.923C1903.43 559.28 1902.94 560.924 1902.02 563.855C1901.07 566.63 1899.15 569.908 1896.27 573.692C1893.4 577.475 1889.12 581.373 1883.44 585.385C1877.88 589.199 1870.45 592.324 1861.16 594.759C1851.87 597.194 1843.85 598.036 1837.09 597.284C1830.45 596.333 1824.92 594.837 1820.52 592.795C1816.23 590.554 1813.04 588.36 1810.97 586.212C1808.89 584.064 1807.81 582.833 1807.73 582.518L1806.16 580.404L1806.55 578.031C1807.9 568.423 1808.25 558.826 1807.58 549.24C1806.92 539.655 1805.31 529.981 1802.75 520.22C1801.02 513.607 1798.89 507.098 1796.37 500.692C1793.97 494.087 1790.97 487.469 1787.38 480.839L1786.64 478.005C1786.46 469.637 1785.94 461.531 1785.06 453.685C1784.29 445.64 1782.96 437.996 1781.07 430.754C1778.84 422.252 1775.96 414.172 1772.44 406.514C1768.92 398.856 1764.92 391.322 1760.46 383.912L1759.49 382.146L1759.94 380.01C1762.17 360.916 1761.03 342.789 1756.53 325.628C1754.72 318.701 1752.39 312.075 1749.56 305.752C1746.84 299.23 1743.45 292.715 1739.39 286.208L1737.64 283.385L1738.91 280.529C1739.02 280.33 1739.72 279.138 1741 276.952C1742.23 274.608 1744.32 271.959 1747.24 269.005C1750.29 265.851 1754.28 262.786 1759.22 259.808C1764.12 256.673 1770.27 254.135 1777.67 252.195C1784.75 250.338 1791.04 249.615 1796.53 250.026C1802.14 250.238 1807.04 250.972 1811.24 252.227L1815.02 251.236C1821.63 249.503 1827.11 248.907 1831.46 249.45C1835.77 249.835 1838.12 250.144 1838.52 250.376L1841.96 250.988L1843.18 253.698C1854.99 285.264 1873.38 309.55 1898.37 326.557L1900.16 327.602L1900.53 329.019C1911.39 353.766 1925.34 373.918 1942.37 389.476L1942.25 389.003C1940.02 380.502 1937.23 372.401 1933.86 364.702C1930.5 357.003 1926.54 349.29 1921.99 341.565L1921 337.787C1923.23 318.693 1922.01 300.251 1917.35 282.461C1913.8 268.921 1908.32 256.054 1900.92 243.861L1899.17 241.039L1900.44 238.182C1900.56 237.983 1901.25 236.791 1902.53 234.605C1903.77 232.262 1905.85 229.613 1908.78 226.658C1911.82 223.504 1915.81 220.439 1920.75 217.461C1925.65 214.326 1931.8 211.788 1939.2 209.849C1946.6 207.909 1953.32 207.24 1959.37 207.842C1965.38 208.287 1970.58 209.195 1974.98 210.566C1979.37 211.937 1982.78 213.398 1985.21 214.949C1987.64 216.501 1988.95 217.335 1989.15 217.451L1991.72 219.553ZM2236.08 316.013C2237.94 323.098 2238.62 329.564 2238.14 335.412C2237.61 341.103 2236.64 346.069 2235.23 350.309C2233.82 354.549 2232.33 357.882 2230.78 360.308C2229.39 362.693 2228.63 363.984 2228.52 364.183L2226.65 366.691L2223.1 366.613C2213.5 365.933 2205.12 365.772 2197.98 366.13C2191 366.447 2184.2 367.472 2177.59 369.205C2172.71 370.485 2168.03 372.216 2163.55 374.399L2165.71 376.861L2167.22 378.739L2166.77 380.876C2165.79 392.572 2165.98 403.881 2167.33 414.801C2169.69 413.51 2172.37 412.216 2175.4 410.919C2178.42 409.621 2181.31 408.443 2184.06 407.385C2186.82 406.327 2189.12 405.472 2190.96 404.819C2192.81 404.167 2193.81 403.82 2193.97 403.778L2195.68 402.575L2197.87 403.26C2207.8 404.529 2216.16 405.282 2222.95 405.521C2229.74 405.759 2236.37 405.032 2242.82 403.34C2247.23 402.184 2251.91 400.453 2256.85 398.146C2261.8 395.84 2267.36 392.954 2273.51 389.488L2276.1 387.801L2278.96 389.071C2279.2 389.344 2280.33 390.141 2282.36 391.46C2284.5 392.58 2286.98 394.625 2289.77 397.593C2292.53 400.404 2295.37 404.201 2298.31 408.984C2301.21 413.609 2303.58 419.464 2305.44 426.549C2307.14 433.675 2307.65 440.104 2306.96 445.836C2306.28 451.568 2305.23 456.554 2303.82 460.795C2302.36 464.877 2300.86 468.132 2299.31 470.558C2297.76 472.983 2296.92 474.296 2296.81 474.494L2294.11 476.716L2291.03 476.515C2280.83 475.486 2272.48 475.068 2265.97 475.261C2259.41 475.296 2253.22 476.077 2247.4 477.604C2243.3 478.677 2239.16 480.185 2234.95 482.128C2230.71 483.914 2225.86 486.279 2220.41 489.223L2217.1 490.089C2212.49 490.458 2207.85 490.748 2203.2 490.959C2198.66 490.971 2194.06 491.083 2189.4 491.294C2188.28 493.438 2186.73 495.864 2184.75 498.571C2182.88 501.08 2180.35 503.596 2177.14 506.119C2174.09 508.602 2170.32 510.934 2165.85 513.117C2161.57 515.416 2156.52 517.329 2150.69 518.856C2141.41 521.292 2133.36 522.054 2126.56 521.145C2119.92 520.194 2114.39 518.698 2109.99 516.656C2105.7 514.415 2102.51 512.221 2100.44 510.073C2098.32 507.768 2097.22 506.458 2097.14 506.144L2095.7 504.502L2095.96 501.657C2097.31 492.048 2097.65 482.451 2096.99 472.865C2096.33 463.28 2094.76 453.764 2092.29 444.318C2090.55 437.705 2088.4 431.117 2085.84 424.553C2083.44 417.949 2080.42 411.252 2076.79 404.464L2075.98 401.394C2075.85 393.184 2075.37 385.235 2074.53 377.546C2073.81 369.659 2072.46 361.936 2070.47 354.379C2068.29 346.035 2065.43 338.034 2061.91 330.376C2058.39 322.718 2054.41 315.262 2049.99 308.01L2048.9 305.772L2049.35 303.635C2050.58 294.225 2050.87 285.063 2050.22 276.148C2049.68 267.035 2048.3 258.228 2046.07 249.726C2044.25 242.798 2041.9 236.094 2039.03 229.613C2036.27 222.934 2032.86 216.34 2028.79 209.833L2027.05 207.011L2028.32 204.154C2028.43 203.955 2029.13 202.763 2030.41 200.577C2031.64 198.234 2033.72 195.585 2036.65 192.63C2039.7 189.477 2043.69 186.411 2048.63 183.433C2053.53 180.298 2059.68 177.761 2067.08 175.821C2075.58 173.592 2083.13 172.874 2089.73 173.667C2096.33 174.461 2101.79 175.721 2106.12 177.448C2110.56 175.779 2115.18 173.811 2119.97 171.546C2124.76 169.281 2129.44 166.622 2134.03 163.569L2135.67 162.129L2138.39 161.92C2146.57 162.301 2153.58 162.398 2159.42 162.213C2165.37 161.83 2170.87 160.977 2175.91 159.657C2181.42 158.212 2186.98 155.997 2192.59 153.012C2198.2 150.026 2204.65 146.064 2211.94 141.125L2214.46 139.202L2217.49 140.174C2217.69 140.29 2218.94 140.888 2221.24 141.967C2223.55 143.046 2226.23 144.95 2229.3 147.678C2232.33 150.249 2235.45 153.806 2238.66 158.349C2241.99 162.693 2244.82 168.345 2247.15 175.306L2248.26 179.557C2249.91 185.855 2250.59 191.65 2250.3 196.944C2250 202.237 2249.28 206.884 2248.15 210.884C2247.12 214.686 2245.97 217.679 2244.69 219.865C2243.57 222.01 2242.96 223.181 2242.84 223.38L2240.97 225.888L2237.18 225.872C2229.17 226.122 2222.39 226.554 2216.83 227.171C2211.23 227.629 2206.14 228.457 2201.58 229.654C2196.23 231.057 2191.04 233.09 2186.01 235.753C2181.11 238.217 2175.26 241.6 2168.48 245.902L2165.3 247.241C2158.36 247.715 2151.73 248.442 2145.43 249.421C2139.28 250.36 2133.14 251.634 2127 253.244C2128.63 257.528 2130.41 261.772 2132.35 265.974C2134.41 269.977 2136.73 273.997 2139.3 278.034L2140.17 281.34C2139.97 284.422 2139.92 287.462 2140.04 290.461C2140.26 293.261 2140.54 296.219 2140.85 299.334C2145.74 299.397 2150.22 299.148 2154.28 298.589C2158.5 297.988 2162.81 297.11 2167.22 295.954C2173.04 294.427 2178.82 292.407 2184.56 289.894C2190.25 287.223 2196.35 283.857 2202.86 279.796L2205.45 278.108L2208.3 279.378C2208.5 279.495 2209.7 280.192 2211.88 281.469C2214.18 282.549 2216.81 284.552 2219.77 287.479C2222.84 290.207 2225.84 293.963 2228.78 298.746C2231.83 303.33 2234.26 309.085 2236.08 316.013ZM2483.91 134.944L2482.17 137.924C2472.78 152.836 2465.93 167.757 2461.6 182.69C2457.42 197.581 2455.47 212.901 2455.72 228.65L2455.17 232.328C2452.59 237.213 2450.15 242.057 2447.88 246.86C2445.72 251.464 2443.72 256.026 2441.88 260.548C2445.66 263.426 2449.48 266.126 2453.34 268.648C2457.16 271.013 2461.17 273.158 2465.37 275.084L2467.63 276.006L2468.79 278.48C2476.71 294.575 2486.6 308.891 2498.47 321.428C2510.46 333.767 2524.61 344.106 2540.93 352.447L2543.19 353.369L2544.34 355.843C2544.38 356 2544.8 357.575 2545.58 360.566C2546.32 363.4 2546.41 367.248 2545.83 372.111C2545.37 376.774 2543.85 382.22 2541.28 388.447C2538.66 394.517 2534 400.788 2527.28 407.26C2522.76 411.812 2518.29 415.337 2513.9 417.835C2509.47 420.175 2505.28 421.861 2501.35 422.893C2497.57 423.884 2494.16 424.357 2491.12 424.312C2488.08 424.268 2485.41 424.042 2483.12 423.634C2480.82 423.226 2479.02 422.773 2477.71 422.274C2476.56 421.735 2475.89 421.407 2475.69 421.291L2473.43 420.369L2472.34 418.131C2466.62 405.327 2459.5 393.565 2450.97 382.845C2442.44 372.125 2432.18 362.195 2420.19 353.055C2413.94 365.798 2409.46 379.173 2406.73 393.18C2404.17 407.144 2403.49 421.542 2404.68 436.372L2404.83 438.857L2403.31 440.77C2403.19 440.968 2402.69 441.606 2401.79 442.682C2400.85 443.601 2399.49 444.8 2397.69 446.282C2395.85 447.605 2393.59 448.954 2390.92 450.326C2388.26 451.699 2385.11 452.86 2381.49 453.809C2373.46 455.914 2366.16 456.649 2359.6 456.013C2353.2 455.336 2347.44 453.902 2342.32 451.71C2337.36 449.477 2333.03 446.743 2329.32 443.509C2325.73 440.075 2322.67 436.755 2320.15 433.546C2317.78 430.297 2315.93 427.416 2314.6 424.905C2313.43 422.352 2312.72 420.603 2312.47 419.659L2311.6 416.353L2311.39 413.631L2312.91 411.719C2322.54 397.752 2329.79 382.727 2334.66 366.644C2339.53 350.56 2342.17 333.041 2342.59 314.087L2343.62 311.292C2345.86 307.003 2347.91 302.598 2349.75 298.076C2351.59 293.555 2353.38 289.133 2355.1 284.81C2351.44 281.733 2347.5 278.896 2343.28 276.299C2339.23 273.661 2335.01 271.064 2330.64 268.508L2328.85 267.463L2327.76 265.225C2320.71 249.238 2311.67 235.287 2300.64 223.372C2289.56 211.3 2276.35 200.713 2261.01 191.61L2258.16 190.34L2257.76 186.91C2257.72 186.753 2257.63 185.431 2257.48 182.946C2257.49 180.419 2257.99 177.176 2258.97 173.217C2259.91 169.101 2261.67 164.6 2264.26 159.715C2266.81 154.672 2270.68 149.535 2275.87 144.304C2280.4 139.752 2284.96 136.285 2289.55 133.904C2294.3 131.481 2298.72 129.733 2302.81 128.66C2308.16 127.257 2312.64 126.673 2316.23 126.908C2319.83 127.143 2321.78 127.22 2322.1 127.137L2325.3 127.811L2326.99 130.397C2333.7 143.783 2341.16 155.541 2349.36 165.672C2357.53 175.646 2367.07 184.42 2377.97 191.993C2384.07 179.962 2388.63 167.494 2391.64 154.59C2394.65 141.686 2395.8 128.093 2395.08 113.81L2395.22 110.492L2397.92 108.27C2398.9 107.509 2400.19 106.665 2401.8 105.739C2403.13 105.053 2404.7 104.304 2406.51 103.494C2408.32 102.684 2410.48 101.949 2413 101.288C2420.71 99.266 2427.79 98.6721 2434.24 99.5065C2440.8 100.142 2446.66 101.635 2451.82 103.984C2457.13 106.292 2461.74 109.121 2465.65 112.472C2469.52 115.665 2472.67 118.708 2475.11 121.602C2477.71 124.454 2479.61 126.9 2480.82 128.939C2482.03 130.978 2482.59 131.84 2482.51 131.525L2483.91 134.944ZM2686.62 250.65L2686.24 253.023C2684.62 270.609 2685.71 286.644 2689.51 301.129C2691.37 308.214 2693.85 315.133 2696.97 321.888C2700.25 328.601 2704.27 335.622 2709.05 342.95L2710.92 345.238L2710.23 347.437C2710.16 347.793 2709.66 349.437 2708.75 352.369C2707.79 355.143 2705.88 358.422 2703 362.205C2700.12 365.988 2695.92 369.866 2690.4 373.837C2684.84 377.651 2677.41 380.775 2668.12 383.21C2658.83 385.645 2650.81 386.487 2644.05 385.735C2637.41 384.784 2631.96 383.267 2627.71 381.184C2623.42 378.943 2620.24 376.749 2618.16 374.602C2616.09 372.454 2614.93 371.243 2614.69 370.97L2613.12 368.856L2613.51 366.483C2614.86 356.874 2615.33 347.75 2614.92 339.109C2614.5 330.468 2613.18 321.896 2610.95 313.395C2609.42 307.569 2607.46 301.69 2605.06 295.756C2602.78 289.623 2599.85 283.242 2596.26 276.611L2595.46 273.541C2595.55 264.934 2595.15 256.964 2594.23 249.631C2593.32 242.299 2591.98 235.248 2590.2 228.478C2586.45 214.151 2580.21 200.306 2571.49 186.943L2569.99 185.066L2570.44 182.929C2571.67 173.519 2571.89 164.377 2571.07 155.504C2570.38 146.432 2569.07 137.604 2567.16 129.02L2564.8 129.639C2548.74 133.849 2533.52 140.951 2519.15 150.945L2517.38 151.912L2514.77 151.587C2514.46 151.669 2512.86 151.332 2509.96 150.576C2507.07 149.819 2503.6 148.122 2499.54 145.483C2495.64 142.804 2491.75 138.861 2487.86 133.655C2483.77 128.333 2480.53 121.106 2478.14 111.974C2475.91 103.472 2475.28 96.2355 2476.23 90.2634C2477.15 84.1339 2478.61 79.1233 2480.62 75.2315C2482.75 71.1411 2484.82 68.1565 2486.86 66.2779C2489 64.2006 2490.21 63.0419 2490.49 62.8019L2492.13 61.362L2494.74 61.6875C2502.33 62.3905 2509.73 62.385 2516.94 61.6711C2524.12 60.7997 2531.41 59.394 2538.81 57.4542C2545.42 55.7207 2552.44 53.6272 2559.88 51.1737C2567.43 48.5216 2574.25 45.0486 2580.36 40.7548L2582.01 39.3148L2584.14 39.7642C2592.87 40.3357 2600.95 40.3226 2608.36 39.7248C2615.93 39.0857 2623.26 37.8375 2630.35 35.9802C2643.1 32.637 2656.47 26.5233 2670.47 17.6391L2673.05 15.9516L2675.91 17.2218C2676.11 17.3379 2677.36 17.9356 2679.66 19.0147C2681.96 20.0938 2684.57 22.0182 2687.48 24.7879C2690.51 27.3589 2693.55 30.9364 2696.61 35.5205C2699.77 39.9058 2702.33 45.4628 2704.26 52.1915C2706.11 59.2763 2706.88 65.7222 2706.55 71.5292C2706.18 77.1787 2705.37 82.103 2704.11 86.3019C2702.97 90.3022 2701.71 93.4946 2700.31 95.8791C2698.88 98.1063 2698.14 99.4766 2698.11 99.9902L2696.24 102.499L2692.69 102.421C2684 102.007 2676.15 102.215 2669.13 103.045C2662.23 103.676 2655.47 104.859 2648.86 106.592L2642.01 108.388C2642.27 110.674 2642.75 112.82 2643.45 114.826C2644.1 116.674 2644.67 118.542 2645.17 120.432C2646.9 127.044 2648.99 133.396 2651.43 139.487C2654.02 145.537 2657.01 151.484 2660.39 157.328L2661.14 160.162C2661.09 169.597 2661.4 178.18 2662.08 185.91C2662.92 193.599 2664.27 200.985 2666.12 208.07C2668.02 215.312 2670.51 222.232 2673.58 228.829C2676.66 235.427 2680.53 242.153 2685.18 249.008L2686.62 250.65ZM473.386 1399.12L473.285 1400.66C471.526 1412.56 470.779 1423.19 471.044 1432.54C471.267 1441.74 472.493 1450.59 474.722 1459.09C476.042 1464.13 477.678 1469.08 479.629 1473.96C481.579 1478.83 483.906 1483.85 486.611 1489.04L487.578 1490.8L487.191 1493.17C484.978 1503.34 483.54 1512.3 482.878 1520.05C482.333 1527.59 482.814 1535.21 484.323 1542.89C487.348 1541.59 490.038 1540.3 492.392 1539.01C494.746 1537.72 497 1536.37 499.155 1534.96C501.427 1533.36 503.698 1531.75 505.97 1530.15C508.399 1528.5 511.122 1526.69 514.139 1524.72C514.844 1524.2 515.49 1523.78 516.079 1523.46C516.626 1522.98 517.231 1522.4 517.895 1521.72L519.536 1520.28L521.785 1520.2C527.154 1520.14 532.183 1519.74 536.872 1519.02C541.562 1518.29 546.111 1517.35 550.519 1516.2L559.729 1513.78C559.043 1512.45 558.278 1511.13 557.434 1509.84C556.707 1508.35 555.88 1506.8 554.953 1505.19L553.963 1501.41C554.392 1494.07 554.357 1487.51 553.857 1481.75C553.514 1475.95 552.641 1470.38 551.238 1465.03C549.628 1458.89 547.232 1452.95 544.048 1447.22C541.021 1441.46 536.881 1434.97 531.627 1427.77L529.877 1424.94L530.675 1422.21C530.634 1422.05 531.211 1420.72 532.406 1418.22C533.602 1415.72 535.7 1412.82 538.702 1409.51C541.82 1406 546.024 1402.45 551.313 1398.88C556.601 1395.31 563.26 1392.47 571.29 1390.36C577.43 1388.75 583.048 1388.04 588.142 1388.22C593.394 1388.35 597.921 1388.93 601.723 1389.96C605.483 1390.82 608.435 1391.81 610.58 1392.93C612.724 1394.05 613.975 1394.65 614.331 1394.73L616.716 1396.12L616.514 1399.2C616.557 1406.43 616.828 1412.92 617.328 1418.68C617.944 1424.23 618.892 1429.45 620.172 1434.34C621.74 1440.32 623.976 1445.96 626.878 1451.25C629.781 1456.55 633.678 1462.43 638.568 1468.89L639.434 1472.19C639.784 1478.66 640.346 1484.66 641.12 1490.17C642.051 1495.65 643.115 1500.67 644.312 1505.24C646.169 1512.32 648.772 1519.04 652.121 1525.4C655.471 1531.76 660.05 1538.63 665.858 1546.03L667.298 1547.67L667.445 1550.16C667.329 1550.36 666.855 1552.08 666.023 1555.32C665.308 1558.37 663.416 1562.07 660.347 1566.4C657.435 1570.7 653.044 1575.13 647.174 1579.7C641.264 1584.11 633.113 1587.68 622.722 1590.4C617.684 1591.72 613.073 1592.43 608.889 1592.51C604.705 1592.6 600.953 1592.41 597.631 1591.93C594.426 1591.26 591.593 1590.4 589.134 1589.36C586.633 1588.17 584.567 1587.03 582.936 1585.94C579.173 1588.27 575.372 1590.78 571.534 1593.47C567.854 1596.12 564.077 1599.04 560.206 1602.25L558.564 1603.69L557.023 1603.59C553.402 1604.54 549.818 1605.31 546.272 1605.9C542.726 1606.49 539.3 1607.22 535.993 1608.09C524.185 1611.18 513.043 1615.54 502.566 1621.14C492.09 1626.75 482.221 1633.71 472.959 1642.03L470.846 1643.59L468.832 1643.62C469.346 1643.65 468.041 1643.49 464.919 1643.13C461.796 1642.77 457.953 1641.59 453.39 1639.59C448.869 1637.74 444.137 1634.78 439.195 1630.69C434.369 1626.4 430.51 1620.35 427.618 1612.52C422.748 1611.28 418.545 1609.69 415.01 1607.75C411.59 1605.62 408.705 1603.6 406.354 1601.69C404.161 1599.74 402.543 1598.06 401.5 1596.66C400.417 1595.09 399.854 1594.23 399.813 1594.07L398.721 1591.83L399.109 1589.46C400.697 1583.32 401.974 1577.6 402.94 1572.3C403.906 1567 404.519 1561.96 404.781 1557.18C405.001 1552.24 404.827 1547.41 404.26 1542.68C403.809 1537.75 402.861 1532.53 401.417 1527.02C399.724 1520.56 397.353 1513.44 394.304 1505.66L393.971 1502.47C395.465 1491.48 396.041 1481.48 395.702 1472.48C395.52 1463.45 394.314 1454.68 392.086 1446.17C390.806 1441.29 389.191 1436.42 387.241 1431.54C385.249 1426.51 383.058 1421.37 380.669 1416.1L379.578 1413.87L380.151 1412.2C381.915 1404.17 383.214 1396.93 384.048 1390.48C384.841 1383.88 385.084 1377.43 384.775 1371.11C381.588 1368.58 378.447 1364.95 375.353 1360.21C372.376 1355.27 369.896 1349.02 367.915 1341.46C365.274 1331.38 364.387 1322.87 365.255 1315.91C366.239 1308.75 367.831 1302.95 370.031 1298.5C372.388 1294.02 374.739 1290.79 377.085 1288.83C379.432 1286.87 380.762 1285.85 381.077 1285.76L383.191 1284.2L385.564 1284.59C394.824 1286.53 403.874 1287.36 412.714 1287.06C421.512 1286.61 430.556 1285.16 439.845 1282.72C443.623 1281.73 448.032 1280.58 453.07 1279.26C458.066 1277.78 462.426 1275.8 466.148 1273.31L468.149 1272.28L470.286 1272.73C480.648 1274.38 489.897 1275.32 498.032 1275.55C506.283 1275.57 514.423 1274.53 522.453 1272.43C527.333 1271.15 532.132 1269.55 536.847 1267.64C541.679 1265.54 546.664 1263.05 551.803 1260.19L554.513 1258.97L556.898 1260.37C557.097 1260.48 558.189 1261.12 560.177 1262.28C562.164 1263.45 564.357 1265.39 566.757 1268.13C569.314 1270.83 571.941 1274.43 574.638 1278.94C577.293 1283.29 579.487 1288.77 581.221 1295.38L582.211 1299.16C583.596 1306.37 583.888 1312.94 583.088 1318.87C582.403 1324.6 581.334 1329.51 579.88 1333.59C578.385 1337.52 576.842 1340.62 575.249 1342.88C573.814 1345.11 573.038 1346.32 572.922 1346.52L570.347 1349.22L567.265 1349.02C556.944 1347.51 547.837 1346.79 539.942 1346.84C532.204 1346.85 524.635 1347.82 517.236 1349.76C512.827 1350.92 508.502 1352.39 504.258 1354.18C500.015 1355.96 495.54 1358.14 490.832 1360.72L487.165 1361.18C482.393 1361.59 477.994 1361.82 473.968 1361.86C469.9 1361.75 465.775 1361.74 461.591 1361.83C461.895 1364.27 462.337 1366.6 462.914 1368.8C463.492 1371 464.07 1373.21 464.648 1375.41C465.556 1378.88 466.642 1382.38 467.906 1385.92C469.328 1389.41 470.969 1393.1 472.829 1396.99L473.386 1399.12ZM825.975 1358.68C827.832 1365.76 828.518 1372.23 828.032 1378.08C827.504 1383.77 826.535 1388.73 825.122 1392.97C823.71 1397.21 822.228 1400.55 820.677 1402.97C819.283 1405.36 818.528 1406.65 818.411 1406.85L816.545 1409.36L812.991 1409.28C803.39 1408.6 795.019 1408.44 787.878 1408.79C780.894 1409.11 774.096 1410.14 767.483 1411.87C762.603 1413.15 757.924 1414.88 753.449 1417.06L755.609 1419.53L757.111 1421.4L756.661 1423.54C755.689 1435.24 755.877 1446.55 757.226 1457.46C759.58 1456.17 762.269 1454.88 765.294 1453.58C768.319 1452.29 771.207 1451.11 773.959 1450.05C776.71 1448.99 779.01 1448.14 780.858 1447.48C782.706 1446.83 783.709 1446.48 783.866 1446.44L785.57 1445.24L787.768 1445.92C797.692 1447.19 806.05 1447.95 812.843 1448.18C819.636 1448.42 826.26 1447.7 832.715 1446C837.123 1444.85 841.801 1443.12 846.749 1440.81C851.697 1438.5 857.25 1435.62 863.409 1432.15L865.995 1430.46L868.852 1431.74C869.092 1432.01 870.226 1432.81 872.254 1434.12C874.399 1435.24 876.87 1437.29 879.667 1440.26C882.423 1443.07 885.27 1446.87 888.206 1451.65C891.101 1456.27 893.477 1462.13 895.335 1469.21C897.035 1476.34 897.542 1482.77 896.857 1488.5C896.173 1494.23 895.124 1499.22 893.712 1503.46C892.258 1507.54 890.756 1510.8 889.204 1513.22C887.653 1515.65 886.819 1516.96 886.703 1517.16L884.004 1519.38L880.923 1519.18C870.726 1518.15 862.372 1517.73 855.86 1517.93C849.307 1517.96 843.118 1518.74 837.293 1520.27C833.199 1521.34 829.051 1522.85 824.849 1524.79C820.606 1526.58 815.758 1528.94 810.304 1531.89L806.998 1532.75C802.383 1533.12 797.748 1533.41 793.092 1533.62C788.552 1533.64 783.954 1533.75 779.298 1533.96C778.178 1536.1 776.626 1538.53 774.644 1541.24C772.777 1543.74 770.24 1546.26 767.032 1548.78C763.981 1551.27 760.217 1553.6 755.742 1555.78C751.465 1558.08 746.414 1559.99 740.589 1561.52C731.3 1563.96 723.255 1564.72 716.454 1563.81C709.811 1562.86 704.287 1561.36 699.882 1559.32C695.593 1557.08 692.409 1554.89 690.332 1552.74C688.213 1550.43 687.113 1549.12 687.03 1548.81L685.59 1547.17L685.854 1544.32C687.205 1534.71 687.549 1525.12 686.887 1515.53C686.225 1505.94 684.656 1496.43 682.18 1486.98C680.446 1480.37 678.299 1473.78 675.737 1467.22C673.332 1460.61 670.315 1453.92 666.684 1447.13L665.879 1444.06C665.746 1435.85 665.261 1427.9 664.423 1420.21C663.701 1412.32 662.35 1404.6 660.369 1397.04C658.181 1388.7 655.327 1380.7 651.805 1373.04C648.283 1365.38 644.309 1357.93 639.884 1350.67L638.792 1348.44L639.242 1346.3C640.477 1336.89 640.767 1327.73 640.113 1318.81C639.574 1309.7 638.191 1300.89 635.962 1292.39C634.146 1285.46 631.8 1278.76 628.923 1272.28C626.162 1265.6 622.751 1259 618.689 1252.5L616.94 1249.68L618.21 1246.82C618.326 1246.62 619.023 1245.43 620.301 1243.24C621.538 1240.9 623.62 1238.25 626.547 1235.29C629.59 1232.14 633.582 1229.08 638.522 1226.1C643.421 1222.96 649.57 1220.42 656.97 1218.49C665.472 1216.26 673.024 1215.54 679.625 1216.33C686.227 1217.12 691.689 1218.39 696.012 1220.11C700.454 1218.44 705.07 1216.48 709.861 1214.21C714.651 1211.94 719.339 1209.29 723.923 1206.23L725.564 1204.79L728.286 1204.58C736.462 1204.97 743.471 1205.06 749.311 1204.88C755.268 1204.49 760.765 1203.64 765.803 1202.32C771.314 1200.88 776.875 1198.66 782.486 1195.68C788.097 1192.69 794.546 1188.73 801.833 1183.79L804.357 1181.87L807.388 1182.84C807.587 1182.95 808.837 1183.55 811.139 1184.63C813.441 1185.71 816.128 1187.61 819.199 1190.34C822.228 1192.91 825.348 1196.47 828.558 1201.01C831.884 1205.36 834.712 1211.01 837.042 1217.97L838.156 1222.22C839.807 1228.52 840.485 1234.31 840.19 1239.61C839.895 1244.9 839.179 1249.55 838.04 1253.55C837.017 1257.35 835.867 1260.34 834.589 1262.53C833.469 1264.67 832.851 1265.85 832.735 1266.04L830.868 1268.55L827.078 1268.54C819.067 1268.79 812.282 1269.22 806.722 1269.83C801.122 1270.29 796.039 1271.12 791.473 1272.32C786.12 1273.72 780.932 1275.75 775.909 1278.42C771.003 1280.88 765.159 1284.26 758.378 1288.57L755.196 1289.9C748.253 1290.38 741.629 1291.11 735.324 1292.09C729.176 1293.02 723.032 1294.3 716.892 1295.91C718.52 1300.19 720.306 1304.44 722.248 1308.64C724.307 1312.64 726.623 1316.66 729.196 1320.7L730.063 1324C729.861 1327.09 729.817 1330.13 729.93 1333.13C730.159 1335.93 730.43 1338.88 730.742 1342C735.638 1342.06 740.115 1341.81 744.175 1341.25C748.393 1340.65 752.705 1339.77 757.114 1338.62C762.939 1337.09 768.719 1335.07 774.454 1332.56C780.148 1329.89 786.248 1326.52 792.755 1322.46L795.342 1320.77L798.199 1322.04C798.397 1322.16 799.59 1322.86 801.775 1324.13C804.077 1325.21 806.706 1327.22 809.661 1330.14C812.732 1332.87 815.735 1336.63 818.672 1341.41C821.724 1345.99 824.159 1351.75 825.975 1358.68ZM1108.25 1124.16L1108.05 1127.24C1107.53 1136.8 1107.49 1145.98 1107.95 1154.78C1108.56 1163.53 1109.96 1172.08 1112.15 1180.43C1113.8 1186.73 1115.92 1192.9 1118.52 1198.95C1121.23 1204.8 1124.38 1210.71 1127.96 1216.67L1128.83 1219.97C1128.32 1237.94 1130.15 1254.87 1134.32 1270.78C1136.47 1278.96 1139.18 1286.75 1142.46 1294.13C1145.74 1301.52 1149.71 1308.64 1154.37 1315.49L1155.42 1319.51C1154.42 1328.52 1154.23 1337.4 1154.84 1346.16C1155.61 1354.88 1157.09 1363.41 1159.28 1371.75C1163.45 1387.65 1170.33 1402.68 1179.92 1416.82L1181.55 1419.17L1181.1 1421.3C1181.03 1421.66 1180.53 1423.3 1179.62 1426.24C1178.66 1429.01 1176.75 1432.29 1173.87 1436.07C1170.99 1439.86 1166.79 1443.73 1161.27 1447.7C1155.71 1451.52 1148.36 1454.62 1139.23 1457.02C1131.67 1459 1125.03 1459.98 1119.31 1459.97C1113.54 1459.8 1108.52 1458.93 1104.23 1457.36L1101.87 1457.97C1097.62 1459.09 1093.74 1459.69 1090.23 1459.77C1086.67 1459.69 1083.67 1459.47 1081.22 1459.1C1078.73 1458.57 1076.73 1458 1075.22 1457.39C1073.83 1456.58 1073.01 1456.03 1072.77 1455.76L1070.51 1454.84L1069.89 1452.48C1064.89 1436.62 1057.56 1422.14 1047.9 1409.03C1038.24 1395.91 1025.94 1383.66 1011 1372.26L1009.44 1370.14C1004.74 1359.93 999.426 1350.56 993.486 1342.02C987.704 1333.44 981.216 1325.38 974.024 1317.85C976.279 1325.16 978.865 1332.14 981.784 1338.78C984.859 1345.38 988.544 1351.73 992.838 1357.84L994.339 1359.72L993.89 1361.85C993.004 1370.67 992.925 1379.35 993.654 1387.91C994.342 1396.31 995.78 1404.69 997.968 1413.03C1000.11 1421.22 1002.87 1429.16 1006.23 1436.86C1009.56 1444.4 1013.77 1451.79 1018.86 1459.04L1020.49 1461.39L1020.04 1463.53C1019.96 1463.88 1019.47 1465.53 1018.56 1468.46C1017.6 1471.23 1015.68 1474.51 1012.81 1478.3C1009.93 1482.08 1005.65 1485.98 999.971 1489.99C994.408 1493.8 986.983 1496.93 977.694 1499.36C968.405 1501.8 960.381 1502.64 953.621 1501.89C946.978 1500.94 941.454 1499.44 937.049 1497.4C932.759 1495.16 929.576 1492.96 927.499 1490.82C925.422 1488.67 924.342 1487.44 924.259 1487.12L922.695 1485.01L923.083 1482.64C924.434 1473.03 924.778 1463.43 924.116 1453.84C923.454 1444.26 921.844 1434.58 919.285 1424.82C917.551 1418.21 915.424 1411.7 912.903 1405.3C910.499 1398.69 907.502 1392.07 903.913 1385.44L903.17 1382.61C902.996 1374.24 902.469 1366.13 901.59 1358.29C900.827 1350.24 899.496 1342.6 897.598 1335.36C895.369 1326.86 892.493 1318.78 888.972 1311.12C885.45 1303.46 881.455 1295.93 876.989 1288.52L876.021 1286.75L876.471 1284.61C878.7 1265.52 877.566 1247.39 873.067 1230.23C871.251 1223.3 868.925 1216.68 866.09 1210.36C863.37 1203.83 859.98 1197.32 855.918 1190.81L854.169 1187.99L855.439 1185.13C855.555 1184.93 856.252 1183.74 857.53 1181.56C858.767 1179.21 860.848 1176.56 863.776 1173.61C866.819 1170.45 870.811 1167.39 875.751 1164.41C880.65 1161.28 886.799 1158.74 894.199 1156.8C901.284 1154.94 907.572 1154.22 913.064 1154.63C918.672 1154.84 923.576 1155.58 927.775 1156.83L931.554 1155.84C938.166 1154.11 943.647 1153.51 947.995 1154.05C952.303 1154.44 954.655 1154.75 955.053 1154.98L958.494 1155.59L959.71 1158.3C971.518 1189.87 989.916 1214.15 1014.9 1231.16L1016.69 1232.21L1017.06 1233.62C1027.92 1258.37 1041.87 1278.52 1058.91 1294.08L1058.78 1293.61C1056.55 1285.11 1053.76 1277 1050.39 1269.31C1047.03 1261.61 1043.07 1253.89 1038.52 1246.17L1037.53 1242.39C1039.76 1223.3 1038.54 1204.86 1033.88 1187.06C1030.33 1173.52 1024.85 1160.66 1017.45 1148.46L1015.7 1145.64L1016.97 1142.79C1017.09 1142.59 1017.79 1141.39 1019.06 1139.21C1020.3 1136.87 1022.38 1134.22 1025.31 1131.26C1028.35 1128.11 1032.34 1125.04 1037.28 1122.06C1042.18 1118.93 1048.33 1116.39 1055.73 1114.45C1063.13 1112.51 1069.86 1111.84 1075.9 1112.45C1081.91 1112.89 1087.11 1113.8 1091.51 1115.17C1095.91 1116.54 1099.32 1118 1101.74 1119.55C1104.17 1121.1 1105.48 1121.94 1105.68 1122.05L1108.25 1124.16ZM1352.61 1220.62C1354.47 1227.7 1355.16 1234.17 1354.67 1240.02C1354.14 1245.71 1353.17 1250.67 1351.76 1254.91C1350.35 1259.15 1348.87 1262.49 1347.31 1264.91C1345.92 1267.3 1345.17 1268.59 1345.05 1268.79L1343.18 1271.3L1339.63 1271.22C1330.03 1270.54 1321.66 1270.38 1314.52 1270.73C1307.53 1271.05 1300.73 1272.08 1294.12 1273.81C1289.24 1275.09 1284.56 1276.82 1280.09 1279L1282.25 1281.46L1283.75 1283.34L1283.3 1285.48C1282.33 1297.18 1282.52 1308.48 1283.86 1319.4C1286.22 1318.11 1288.91 1316.82 1291.93 1315.52C1294.96 1314.22 1297.85 1313.05 1300.6 1311.99C1303.35 1310.93 1305.65 1310.08 1307.5 1309.42C1309.34 1308.77 1310.35 1308.42 1310.5 1308.38L1312.21 1307.18L1314.41 1307.86C1324.33 1309.13 1332.69 1309.89 1339.48 1310.12C1346.27 1310.36 1352.9 1309.64 1359.35 1307.94C1363.76 1306.79 1368.44 1305.06 1373.39 1302.75C1378.33 1300.44 1383.89 1297.56 1390.05 1294.09L1392.63 1292.4L1395.49 1293.67C1395.73 1293.95 1396.86 1294.74 1398.89 1296.06C1401.04 1297.18 1403.51 1299.23 1406.3 1302.2C1409.06 1305.01 1411.91 1308.8 1414.84 1313.59C1417.74 1318.21 1420.12 1324.07 1421.97 1331.15C1423.67 1338.28 1424.18 1344.71 1423.5 1350.44C1422.81 1356.17 1421.76 1361.16 1420.35 1365.4C1418.9 1369.48 1417.39 1372.74 1415.84 1375.16C1414.29 1377.59 1413.46 1378.9 1413.34 1379.1L1410.64 1381.32L1407.56 1381.12C1397.36 1380.09 1389.01 1379.67 1382.5 1379.86C1375.94 1379.9 1369.76 1380.68 1363.93 1382.21C1359.84 1383.28 1355.69 1384.79 1351.49 1386.73C1347.24 1388.52 1342.4 1390.88 1336.94 1393.83L1333.64 1394.69C1329.02 1395.06 1324.39 1395.35 1319.73 1395.56C1315.19 1395.57 1310.59 1395.69 1305.94 1395.9C1304.82 1398.04 1303.26 1400.47 1301.28 1403.17C1299.42 1405.68 1296.88 1408.2 1293.67 1410.72C1290.62 1413.21 1286.86 1415.54 1282.38 1417.72C1278.1 1420.02 1273.05 1421.93 1267.23 1423.46C1257.94 1425.9 1249.89 1426.66 1243.09 1425.75C1236.45 1424.8 1230.92 1423.3 1226.52 1421.26C1222.23 1419.02 1219.05 1416.82 1216.97 1414.68C1214.85 1412.37 1213.75 1411.06 1213.67 1410.75L1212.23 1409.11L1212.49 1406.26C1213.84 1396.65 1214.19 1387.05 1213.53 1377.47C1212.86 1367.88 1211.29 1358.37 1208.82 1348.92C1207.08 1342.31 1204.94 1335.72 1202.37 1329.16C1199.97 1322.55 1196.95 1315.86 1193.32 1309.07L1192.52 1306C1192.38 1297.79 1191.9 1289.84 1191.06 1282.15C1190.34 1274.26 1188.99 1266.54 1187.01 1258.98C1184.82 1250.64 1181.96 1242.64 1178.44 1234.98C1174.92 1227.32 1170.95 1219.87 1166.52 1212.61L1165.43 1210.38L1165.88 1208.24C1167.11 1198.83 1167.4 1189.67 1166.75 1180.75C1166.21 1171.64 1164.83 1162.83 1162.6 1154.33C1160.78 1147.4 1158.44 1140.7 1155.56 1134.22C1152.8 1127.54 1149.39 1120.94 1145.33 1114.44L1143.58 1111.61L1144.85 1108.76C1144.96 1108.56 1145.66 1107.37 1146.94 1105.18C1148.18 1102.84 1150.26 1100.19 1153.18 1097.23C1156.23 1094.08 1160.22 1091.01 1165.16 1088.04C1170.06 1084.9 1176.21 1082.36 1183.61 1080.42C1192.11 1078.2 1199.66 1077.48 1206.26 1078.27C1212.86 1079.06 1218.33 1080.32 1222.65 1082.05C1227.09 1080.38 1231.71 1078.42 1236.5 1076.15C1241.29 1073.88 1245.98 1071.23 1250.56 1068.17L1252.2 1066.73L1254.92 1066.52C1263.1 1066.9 1270.11 1067 1275.95 1066.82C1281.91 1066.43 1287.4 1065.58 1292.44 1064.26C1297.95 1062.82 1303.51 1060.6 1309.12 1057.62C1314.73 1054.63 1321.18 1050.67 1328.47 1045.73L1330.99 1043.81L1334.03 1044.78C1334.22 1044.89 1335.47 1045.49 1337.78 1046.57C1340.08 1047.65 1342.77 1049.55 1345.84 1052.28C1348.87 1054.85 1351.99 1058.41 1355.2 1062.95C1358.52 1067.3 1361.35 1072.95 1363.68 1079.91L1364.79 1084.16C1366.44 1090.46 1367.12 1096.25 1366.83 1101.55C1366.53 1106.84 1365.82 1111.49 1364.68 1115.49C1363.66 1119.29 1362.5 1122.28 1361.23 1124.47C1360.11 1126.61 1359.49 1127.79 1359.37 1127.98L1357.51 1130.49L1353.72 1130.48C1345.7 1130.73 1338.92 1131.16 1333.36 1131.77C1327.76 1132.23 1322.68 1133.06 1318.11 1134.26C1312.76 1135.66 1307.57 1137.69 1302.55 1140.36C1297.64 1142.82 1291.8 1146.2 1285.02 1150.51L1281.83 1151.84C1274.89 1152.32 1268.27 1153.05 1261.96 1154.03C1255.81 1154.96 1249.67 1156.24 1243.53 1157.85C1245.16 1162.13 1246.94 1166.38 1248.89 1170.58C1250.95 1174.58 1253.26 1178.6 1255.83 1182.64L1256.7 1185.94C1256.5 1189.03 1256.45 1192.07 1256.57 1195.06C1256.8 1197.86 1257.07 1200.82 1257.38 1203.94C1262.28 1204 1266.75 1203.75 1270.81 1203.19C1275.03 1202.59 1279.34 1201.71 1283.75 1200.56C1289.58 1199.03 1295.36 1197.01 1301.09 1194.5C1306.79 1191.83 1312.89 1188.46 1319.39 1184.4L1321.98 1182.71L1324.84 1183.98C1325.03 1184.1 1326.23 1184.8 1328.41 1186.07C1330.72 1187.15 1333.34 1189.16 1336.3 1192.08C1339.37 1194.81 1342.37 1198.57 1345.31 1203.35C1348.36 1207.93 1350.8 1213.69 1352.61 1220.62ZM1637.96 1120.07L1638.23 1123.03L1635.76 1125.19C1626.69 1132.28 1618.62 1139.69 1611.56 1147.43C1604.62 1154.97 1598.69 1163.17 1593.78 1172.03C1598.36 1178.57 1603.53 1184.2 1609.31 1188.91C1615.05 1193.46 1622.22 1198.06 1630.84 1202.7L1632.88 1204.69C1639.11 1217.53 1646.73 1228.65 1655.76 1238.06C1664.95 1247.43 1676.09 1255.28 1689.19 1261.6L1691.39 1262.29L1692.01 1264.65C1692.09 1264.97 1692.33 1266.5 1692.72 1269.26C1693.26 1271.98 1693.18 1275.53 1692.48 1279.92C1691.94 1284.27 1690.38 1289.23 1687.8 1294.78C1685.21 1300.34 1680.92 1306.09 1674.91 1312.04C1670.22 1316.64 1665.58 1320.12 1660.99 1322.5C1656.6 1325 1652.59 1326.73 1648.97 1327.67C1645.66 1328.54 1642.67 1328.99 1639.98 1329.02C1637.3 1329.05 1634.99 1328.9 1633.05 1328.57C1631.11 1328.23 1629.59 1327.88 1628.48 1327.49C1627.37 1327.11 1626.71 1326.86 1626.52 1326.75L1624.85 1326.17L1623.76 1323.94C1621.36 1318 1618.6 1312.59 1615.46 1307.69C1612.48 1302.75 1609.08 1298.09 1605.24 1293.71C1601.4 1289.33 1597.1 1285.16 1592.36 1281.18C1587.78 1277.17 1582.78 1273.18 1577.36 1269.22C1575.37 1268.05 1574.02 1267.4 1573.31 1267.25L1571.52 1266.2L1571.03 1264.31C1567.83 1257.24 1564.62 1251.1 1561.4 1245.89C1558.3 1240.48 1554.67 1235.62 1550.52 1231.33C1545.19 1237.94 1540.23 1245.04 1535.66 1252.64C1531.25 1260.19 1527.45 1267.83 1524.26 1275.57C1524.27 1276.91 1524.5 1278.11 1524.95 1279.17C1525.4 1280.23 1525.78 1281.39 1526.11 1282.65C1528.3 1290.99 1531.08 1299.02 1534.44 1306.72C1537.77 1314.26 1541.98 1321.65 1547.07 1328.9L1548.51 1330.54L1548.25 1333.38C1548.17 1333.74 1547.68 1335.38 1546.76 1338.32C1545.81 1341.09 1543.89 1344.37 1541.01 1348.15C1538.14 1351.94 1533.84 1355.75 1528.12 1359.61C1522.6 1363.58 1515.19 1366.78 1505.9 1369.22C1496.61 1371.65 1488.57 1372.42 1481.77 1371.51C1475.17 1370.71 1469.66 1369.3 1465.26 1367.25C1460.97 1365.01 1457.78 1362.82 1455.71 1360.67C1453.63 1358.52 1452.55 1357.29 1452.47 1356.98L1450.84 1354.63L1451.29 1352.49C1452.6 1342.73 1452.95 1333.13 1452.32 1323.7C1451.66 1314.11 1450.05 1304.44 1447.49 1294.68C1445.76 1288.07 1443.63 1281.56 1441.11 1275.15C1438.71 1268.55 1435.71 1261.93 1432.12 1255.3L1431.32 1252.23C1431.18 1244.02 1430.68 1235.99 1429.8 1228.14C1429.04 1220.1 1427.7 1212.46 1425.81 1205.21C1423.58 1196.71 1420.7 1188.63 1417.18 1180.97C1413.66 1173.32 1409.66 1165.78 1405.2 1158.37L1404.23 1156.61L1404.68 1154.47C1406.91 1135.38 1405.75 1117.17 1401.21 1099.85C1399.36 1092.77 1396.99 1085.98 1394.11 1079.5C1391.39 1072.98 1388 1066.47 1383.94 1059.96L1382.25 1057.37L1383.52 1054.52C1383.64 1054.32 1384.1 1053.52 1384.92 1052.13C1385.69 1050.58 1386.97 1048.73 1388.76 1046.58C1390.51 1044.27 1392.91 1041.88 1395.96 1039.39C1398.97 1036.75 1402.72 1034.34 1407.19 1032.16C1408.95 1026.65 1411.36 1022.06 1414.44 1018.4C1417.47 1014.57 1420.46 1011.52 1423.39 1009.23C1426.48 1006.91 1429.15 1005.2 1431.39 1004.11C1433.78 1002.98 1435.12 1002.29 1435.39 1002.05L1437.99 1001.37L1440.25 1002.29C1445.89 1005.19 1451.96 1007.8 1458.46 1010.14C1464.96 1012.47 1471.65 1014.25 1478.54 1015.47C1485.42 1016.7 1492.47 1017.29 1499.7 1017.25C1506.88 1017.05 1514.09 1016 1521.33 1014.1L1525.78 1014.7C1533.52 1018.56 1540.74 1021.71 1547.44 1024.16C1554.26 1026.41 1561.07 1028 1567.87 1028.9C1574.67 1029.81 1581.64 1030.09 1588.78 1029.73C1595.92 1029.37 1603.65 1028.36 1611.96 1026.68L1615.15 1026.35L1617.66 1028.22C1617.74 1028.53 1618.17 1029.18 1618.93 1030.16C1619.85 1031.09 1620.89 1032.5 1622.06 1034.39C1623.18 1036.11 1624.35 1038.33 1625.57 1041.04C1626.9 1043.55 1628.02 1046.54 1628.93 1050C1629.75 1053.15 1630.32 1056.62 1630.64 1060.4C1631.12 1064.15 1631.19 1068.25 1630.84 1072.72C1630.33 1079.75 1628.98 1085.83 1626.79 1090.94C1629.59 1094.58 1631.7 1098.15 1633.13 1101.65C1634.66 1104.95 1635.78 1107.93 1636.49 1110.61C1637.19 1113.29 1637.59 1115.45 1637.68 1117.11C1637.78 1118.77 1637.87 1119.75 1637.96 1120.07ZM1519.94 1105.07L1516.63 1104.93C1509.73 1103.04 1503.3 1101.27 1497.32 1099.64C1491.3 1097.86 1485.54 1096.42 1480.04 1095.34C1481.57 1101.17 1483.57 1106.87 1486.04 1112.45C1488.47 1117.87 1491.31 1123.26 1494.57 1128.63L1495.5 1132.17C1495.03 1146.43 1495.97 1159.98 1498.33 1172.82C1500.19 1169.65 1501.81 1166.53 1503.2 1163.47C1504.74 1160.38 1505.86 1157.56 1506.54 1155.03L1509.34 1151.26C1518.7 1144.6 1527.14 1137.34 1534.67 1129.48C1542.32 1121.42 1548.89 1112.46 1554.38 1102.61C1543.79 1102.02 1532.31 1102.84 1519.94 1105.07ZM1919.99 1118.57C1922.29 1123.52 1924.03 1128.19 1925.18 1132.6C1926.46 1137.48 1927.14 1142.02 1927.23 1146.2C1927.28 1150.23 1927.04 1153.82 1926.52 1156.98C1926.12 1159.95 1925.6 1162.44 1924.95 1164.46C1924.42 1166.29 1924.1 1167.3 1923.98 1167.5L1922.77 1170.59L1919.34 1170.98C1917.05 1171.25 1914.81 1171.67 1912.61 1172.24C1910.4 1172.82 1908.2 1173.4 1905.99 1173.98C1910.22 1181.11 1914.94 1187.87 1920.14 1194.25C1925.34 1200.62 1930.88 1206.66 1936.75 1212.35L1940.34 1215.45L1938.2 1219.8C1938.08 1220 1937.44 1221.09 1936.28 1223.08C1935.23 1224.87 1933.48 1227.18 1931.03 1230.01C1928.53 1232.68 1925.21 1235.74 1921.07 1239.18C1917.08 1242.58 1912.12 1245.82 1906.2 1248.88C1903.41 1250.46 1900.58 1251.87 1897.72 1253.13C1894.97 1254.18 1892.17 1255.08 1889.34 1255.83C1885.25 1256.9 1881.38 1257.58 1877.76 1257.85C1874.28 1258.09 1871.26 1258.13 1868.7 1257.96C1866.09 1257.63 1863.99 1257.34 1862.41 1257.08C1860.99 1256.78 1860.19 1256.65 1860.04 1256.69L1856.24 1255.67L1855.72 1251.77C1855.18 1249.72 1854.74 1247.73 1854.41 1245.8C1854.07 1243.87 1853.63 1241.88 1853.09 1239.84C1850.25 1228.97 1846.47 1218.44 1841.78 1208.23C1841.31 1209.02 1840.84 1209.48 1840.37 1209.6L1837.31 1211.42C1827.4 1214.02 1817.41 1217.31 1807.34 1221.29C1797.28 1225.28 1787.57 1230.26 1778.2 1236.25L1780.12 1243.57C1781.9 1250.34 1784.14 1256.99 1786.86 1263.51L1787.95 1265.75L1787.03 1268.01C1786.92 1268.21 1786.36 1269.28 1785.35 1271.23C1784.35 1273.17 1782.6 1275.48 1780.1 1278.15C1777.61 1280.83 1774.28 1283.55 1770.13 1286.32C1765.93 1288.94 1760.61 1291.09 1754.15 1292.78C1741.56 1296.08 1731.09 1296.89 1722.74 1295.21C1714.55 1293.49 1707.88 1290.86 1702.75 1287.33C1696.82 1283.33 1692.21 1278.23 1688.9 1272.03L1687.93 1270.26L1688.85 1268C1693.66 1253.62 1696.14 1239 1696.29 1224.16C1696.55 1209.11 1694.56 1193.48 1690.3 1177.27L1688.14 1169L1688.34 1165.92C1691.26 1152.03 1692.55 1138.65 1692.2 1125.79C1691.98 1112.72 1690.23 1099.97 1686.97 1087.53C1686.15 1084.38 1685.24 1081.26 1684.26 1078.15C1683.28 1075.04 1682.21 1071.95 1681.07 1068.89L1679.98 1066.65L1680.9 1064.39C1689.95 1037.28 1690.95 1010.27 1683.89 983.346C1683.27 980.985 1682.55 978.565 1681.73 976.087C1680.87 973.452 1679.94 970.837 1678.92 968.244L1678.18 965.41L1679.74 962.727C1679.86 962.528 1680.5 961.771 1681.67 960.455C1682.96 958.94 1684.79 957.281 1687.18 955.477C1689.53 953.516 1692.47 951.568 1696 949.632C1699.69 947.656 1704.05 946.007 1709.09 944.686C1718.85 942.128 1727.51 941.456 1735.06 942.673C1742.77 943.848 1749.23 945.689 1754.43 948.196C1759.63 950.703 1763.57 953.204 1766.24 955.7C1769.07 958.155 1770.58 959.441 1770.78 959.557L1773 962.255L1772.33 965.461C1771.87 966.256 1771.68 966.81 1771.76 967.125L1775.06 966.259C1781.99 964.443 1787.55 963.491 1791.73 963.404C1796.07 963.275 1798.4 963.17 1798.71 963.087L1802.11 964.47L1802.5 967.9C1802.68 969.872 1803.02 971.802 1803.51 973.691C1803.97 975.423 1804.44 977.234 1804.94 979.123C1812.28 1007.15 1825.62 1031.08 1844.96 1050.91L1846.65 1053.5L1848.32 1059.87C1850.46 1068.06 1852.84 1075.85 1855.45 1083.24C1858.02 1090.48 1861.14 1097.23 1864.8 1103.51C1867.62 1101.42 1870.34 1099.28 1872.96 1097.08C1875.58 1094.88 1878.08 1092.54 1880.46 1090.06L1882.45 1088.03L1885.77 1088.17C1885.97 1088.28 1887.18 1088.72 1889.4 1089.49C1891.77 1090.21 1894.59 1091.66 1897.85 1093.83C1901.27 1095.96 1904.94 1099.04 1908.86 1103.06C1912.89 1106.89 1916.6 1112.05 1919.99 1118.57ZM1776.85 1091.48L1770.63 1081.25C1769.49 1091.64 1769.27 1101.71 1769.97 1111.46C1770.67 1121.2 1772.2 1130.56 1774.55 1139.53L1776.23 1145.91C1782.38 1141.77 1788.11 1137.32 1793.42 1132.57L1796.95 1130.63C1798.14 1130.66 1799.3 1130.6 1800.45 1130.47C1801.59 1130.34 1802.63 1130.15 1803.58 1129.9C1800.07 1123.59 1796.07 1117.32 1791.58 1111.09C1787.2 1104.67 1782.29 1098.13 1776.85 1091.48ZM2062.93 1087.15L2062.55 1089.53C2060.93 1107.11 2062.02 1123.15 2065.82 1137.63C2067.68 1144.72 2070.16 1151.64 2073.28 1158.39C2076.55 1165.1 2080.58 1172.12 2085.36 1179.45L2087.23 1181.74L2086.54 1183.94C2086.46 1184.3 2085.97 1185.94 2085.06 1188.87C2084.1 1191.65 2082.18 1194.92 2079.31 1198.71C2076.43 1202.49 2072.23 1206.37 2066.71 1210.34C2061.14 1214.15 2053.72 1217.28 2044.43 1219.71C2035.14 1222.15 2027.12 1222.99 2020.36 1222.24C2013.71 1221.29 2008.27 1219.77 2004.02 1217.69C1999.73 1215.45 1996.55 1213.25 1994.47 1211.1C1992.39 1208.96 1991.24 1207.75 1991 1207.47L1989.43 1205.36L1989.82 1202.98C1991.17 1193.38 1991.64 1184.25 1991.22 1175.61C1990.81 1166.97 1989.49 1158.4 1987.26 1149.9C1985.73 1144.07 1983.77 1138.19 1981.37 1132.26C1979.09 1126.13 1976.16 1119.74 1972.57 1113.11L1971.76 1110.04C1971.86 1101.44 1971.46 1093.47 1970.54 1086.13C1969.63 1078.8 1968.29 1071.75 1966.51 1064.98C1962.76 1050.65 1956.52 1036.81 1947.8 1023.45L1946.3 1021.57L1946.75 1019.43C1947.98 1010.02 1948.19 1000.88 1947.38 992.006C1946.69 982.934 1945.38 974.106 1943.47 965.522L1941.11 966.141C1925.05 970.351 1909.83 977.453 1895.46 987.447L1893.69 988.414L1891.08 988.089C1890.77 988.171 1889.16 987.834 1886.27 987.078C1883.38 986.321 1879.91 984.624 1875.85 981.986C1871.95 979.306 1868.06 975.363 1864.17 970.157C1860.08 964.835 1856.84 957.608 1854.45 948.476C1852.22 939.974 1851.58 932.738 1852.54 926.765C1853.46 920.636 1854.92 915.625 1856.93 911.734C1859.06 907.643 1861.13 904.659 1863.16 902.78C1865.31 900.703 1866.52 899.544 1866.8 899.304L1868.44 897.864L1871.05 898.19C1878.64 898.893 1886.04 898.887 1893.25 898.173C1900.43 897.302 1907.72 895.896 1915.12 893.956C1921.73 892.223 1928.75 890.129 1936.18 887.676C1943.73 885.024 1950.56 881.551 1956.67 877.257L1958.31 875.817L1960.45 876.266C1969.18 876.838 1977.26 876.825 1984.67 876.227C1992.24 875.588 1999.57 874.34 2006.66 872.482C2019.41 869.139 2032.78 863.025 2046.77 854.141L2049.36 852.454L2052.22 853.724C2052.42 853.84 2053.67 854.438 2055.97 855.517C2058.27 856.596 2060.88 858.52 2063.79 861.29C2066.82 863.861 2069.86 867.438 2072.91 872.023C2076.08 876.408 2078.63 881.965 2080.57 888.694C2082.42 895.778 2083.19 902.224 2082.86 908.031C2082.49 913.681 2081.68 918.605 2080.42 922.804C2079.28 926.804 2078.02 929.997 2076.62 932.381C2075.19 934.608 2074.45 935.979 2074.42 936.492L2072.55 939.001L2069 938.923C2060.31 938.509 2052.46 938.717 2045.44 939.547C2038.54 940.178 2031.78 941.361 2025.17 943.094L2018.32 944.89C2018.58 947.176 2019.06 949.322 2019.75 951.328C2020.41 953.176 2020.98 955.045 2021.48 956.934C2023.21 963.546 2025.3 969.898 2027.73 975.989C2030.33 982.039 2033.32 987.986 2036.7 993.83L2037.44 996.664C2037.39 1006.1 2037.71 1014.68 2038.39 1022.41C2039.23 1030.1 2040.57 1037.49 2042.43 1044.57C2044.33 1051.81 2046.82 1058.73 2049.89 1065.33C2052.97 1071.93 2056.84 1078.65 2061.49 1085.51L2062.93 1087.15ZM2186.72 840.169L2186.11 843.61C2185.55 853.012 2185.57 862.092 2186.18 870.849C2186.91 879.407 2188.37 887.859 2190.56 896.203C2192.29 902.815 2194.38 909.167 2196.82 915.259C2199.37 921.151 2202.42 926.999 2205.96 932.801L2206.89 936.343C2206.5 954.784 2208.38 971.876 2212.5 987.62C2214.61 995.649 2217.3 1003.36 2220.58 1010.74C2223.83 1017.97 2227.77 1025.01 2232.43 1031.86L2233.93 1033.74L2233.48 1035.88C2232.6 1044.69 2232.52 1053.38 2233.25 1061.94C2233.94 1070.34 2235.37 1078.71 2237.56 1087.05C2239.71 1095.24 2242.46 1103.18 2245.83 1110.88C2249.15 1118.43 2253.36 1125.82 2258.46 1133.06L2260.08 1135.41L2259.63 1137.55C2259.56 1137.91 2259.06 1139.55 2258.15 1142.48C2257.19 1145.26 2255.28 1148.54 2252.4 1152.32C2249.52 1156.1 2245.24 1160 2239.56 1164.01C2234 1167.83 2226.58 1170.95 2217.29 1173.39C2208 1175.82 2199.97 1176.66 2193.22 1175.91C2186.57 1174.96 2181.05 1173.47 2176.64 1171.42C2172.35 1169.18 2169.17 1166.99 2167.09 1164.84C2165.02 1162.69 2163.94 1161.46 2163.85 1161.15L2162.23 1158.8L2162.68 1156.66C2163.99 1146.89 2164.33 1137.3 2163.71 1127.87C2163.05 1118.28 2161.44 1108.61 2158.88 1098.85C2157.15 1092.24 2155.02 1085.73 2152.5 1079.32C2150.09 1072.72 2147.1 1066.1 2143.51 1059.47L2142.7 1056.4C2142.57 1048.19 2142.08 1040.24 2141.25 1032.55C2140.52 1024.66 2139.17 1016.94 2137.19 1009.38C2134.96 1000.88 2132.09 992.801 2128.57 985.143C2125.04 977.485 2121.05 969.951 2116.58 962.54L2115.62 960.775L2116.06 958.638C2118.29 939.545 2117.16 921.418 2112.66 904.257C2110.85 897.329 2108.5 890.625 2105.62 884.144C2102.9 877.622 2099.51 871.107 2095.45 864.6L2093.76 862.014L2095.03 859.157C2095.15 858.958 2095.85 857.766 2097.12 855.58C2098.36 853.237 2100.44 850.588 2103.37 847.633C2106.41 844.48 2110.4 841.414 2115.35 838.436C2120.24 835.301 2126.39 832.764 2133.79 830.824C2141.35 828.843 2148.15 828.153 2154.2 828.755C2160.2 829.2 2165.33 830.129 2169.57 831.541C2173.97 832.912 2177.38 834.373 2179.8 835.925C2182.23 837.476 2183.54 838.31 2183.74 838.426L2186.72 840.169ZM2563.25 1040.29L2562.93 1042.9C2562.97 1043.06 2562.59 1044.84 2561.8 1048.24C2561.17 1051.6 2559.28 1055.63 2556.14 1060.33C2553.11 1064.82 2548.45 1069.49 2542.15 1074.34C2535.96 1078.99 2527.44 1082.74 2516.57 1085.59C2509.49 1087.45 2503.3 1088.23 2498.01 1087.93C2492.67 1087.48 2487.94 1086.45 2483.82 1084.84C2476.87 1087.84 2470.11 1091.29 2463.57 1095.2C2457.13 1098.9 2450.95 1103.21 2445 1108.14L2443.83 1109.45L2442.29 1109.35C2438.36 1110.39 2434.54 1111.22 2430.83 1111.85C2427.29 1112.45 2423.62 1113.24 2419.84 1114.23C2407.09 1117.57 2394.3 1122.36 2381.46 1128.58C2368.78 1134.77 2357.81 1142.02 2348.55 1150.34L2346.43 1151.9L2344.42 1151.92C2344.93 1151.96 2343.63 1151.79 2340.5 1151.43C2337.38 1151.07 2333.54 1149.89 2328.98 1147.89C2324.45 1146.05 2319.72 1143.08 2314.78 1139C2309.96 1134.71 2306.1 1128.65 2303.2 1120.83C2298.33 1119.58 2294.13 1117.99 2290.6 1116.06C2287.18 1113.93 2284.29 1111.91 2281.94 1110C2279.75 1108.05 2278.13 1106.37 2277.09 1104.96C2276 1103.39 2275.44 1102.53 2275.4 1102.38L2274.31 1100.14L2274.69 1097.76C2276.28 1091.63 2277.56 1085.91 2278.53 1080.61C2279.49 1075.31 2280.11 1070.27 2280.37 1065.49C2280.59 1060.55 2280.41 1055.71 2279.85 1050.98C2279.39 1046.05 2278.45 1040.83 2277 1035.32C2275.31 1028.87 2272.94 1021.75 2269.89 1013.97L2269.56 1010.77C2271.05 999.782 2271.63 989.788 2271.29 980.791C2271.11 971.753 2269.9 962.983 2267.67 954.481C2266.39 949.6 2264.78 944.723 2262.83 939.85C2260.83 934.82 2258.64 929.673 2256.25 924.41L2255.16 922.173L2255.74 920.508C2257.5 912.474 2258.8 905.235 2259.63 898.79C2260.43 892.188 2260.67 885.731 2260.36 879.418C2257.17 876.889 2254.03 873.253 2250.94 868.511C2247.96 863.571 2245.48 857.322 2243.5 849.765C2240.86 839.689 2239.97 831.172 2240.84 824.214C2241.82 817.057 2243.42 811.256 2245.62 806.809C2247.97 802.321 2250.32 799.097 2252.67 797.136C2255.02 795.174 2256.35 794.153 2256.66 794.07L2258.78 792.506L2261.15 792.894C2270.41 794.841 2279.46 795.665 2288.3 795.367C2297.1 794.911 2306.14 793.466 2315.43 791.031C2319.21 790.04 2323.62 788.885 2328.66 787.564C2333.65 786.086 2338.01 784.102 2341.73 781.612L2343.74 780.582L2345.87 781.031C2355.41 782.739 2364.06 783.666 2371.84 783.814C2379.62 783.963 2387.17 783.245 2394.5 781.661C2397.98 778.897 2401.97 776.167 2406.48 773.471C2410.99 770.774 2416.4 768.601 2422.69 766.95C2428.99 765.299 2434.79 764.621 2440.08 764.916C2445.33 765.053 2449.86 765.633 2453.66 766.656C2457.62 767.637 2460.67 768.688 2462.82 769.808C2465.12 770.887 2466.45 771.464 2466.8 771.539L2469.78 773.282L2469.58 776.363C2469.67 783.745 2470.06 790.708 2470.77 797.253C2471.59 803.6 2472.76 809.686 2474.29 815.511C2476.36 823.383 2479.14 830.812 2482.66 837.799C2486.29 844.588 2490.71 851.505 2495.92 858.552L2497.24 859.721L2497.26 861.734C2497.89 867.964 2498.61 873.917 2499.42 879.593C2500.19 885.111 2501.28 890.546 2502.69 895.899C2505.37 906.133 2508.97 915.705 2513.49 924.615C2518.13 933.326 2523.9 941.827 2530.78 950.117L2532.1 951.287L2531.77 953.896C2531.86 961.277 2532.21 968.083 2532.83 974.314C2533.42 980.387 2534.43 986.178 2535.87 991.689C2538.06 1000.03 2541.23 1007.95 2545.38 1015.44C2549.49 1022.78 2554.97 1030.51 2561.81 1038.65L2563.25 1040.29ZM2348.97 907.424L2348.87 908.964C2347.11 920.867 2346.36 931.495 2346.63 940.848C2346.85 950.044 2348.08 958.893 2350.31 967.395C2351.63 972.433 2353.26 977.388 2355.21 982.261C2357.16 987.134 2359.49 992.161 2362.2 997.341L2363.16 999.107L2362.78 1001.48C2360.6 1011.81 2359.19 1020.85 2358.53 1028.59C2357.98 1036.14 2358.44 1043.67 2359.91 1051.2C2363.56 1049.73 2367.51 1048.11 2371.76 1046.32C2376 1044.54 2380.06 1042.71 2383.95 1040.85C2387.95 1038.8 2391.6 1036.66 2394.89 1034.45C2398.34 1032.2 2401.1 1029.88 2403.16 1027.49L2404.8 1026.05L2406.82 1026.03C2412.66 1025.84 2418.24 1025.3 2423.56 1024.41C2429.03 1023.48 2434.29 1022.36 2439.33 1021.04C2446.26 1019.22 2453.06 1016.93 2459.74 1014.17C2457.76 1009.81 2455.49 1005.36 2452.96 1000.81C2450.53 996.057 2447.73 991.154 2444.56 986.098L2443.34 983.388C2442.47 972.344 2440.71 961.784 2438.07 951.708C2435.38 941.474 2431.72 932.002 2427.08 923.291C2422.56 914.381 2416.97 905.582 2410.32 896.894L2408.88 895.252L2408.73 892.767C2408.85 886.173 2408.7 879.818 2408.28 873.704C2407.85 867.59 2407.03 861.579 2405.82 855.671C2403.54 855.934 2401.27 856.276 2399.02 856.696C2396.94 857.075 2394.87 857.533 2392.82 858.07C2388.41 859.225 2384.09 860.696 2379.84 862.481C2375.6 864.267 2371.13 866.45 2366.42 869.03L2362.75 869.486C2357.98 869.896 2353.58 870.124 2349.55 870.17C2345.49 870.058 2341.36 870.046 2337.18 870.133C2337.48 872.577 2337.92 874.901 2338.5 877.106C2339.08 879.31 2339.66 881.514 2340.23 883.718C2341.14 887.182 2342.23 890.683 2343.49 894.222C2344.91 897.719 2346.55 901.411 2348.41 905.298L2348.97 907.424ZM2773.65 687.563L2773.45 690.645C2772.93 700.205 2772.9 709.384 2773.35 718.182C2773.96 726.939 2775.36 735.49 2777.55 743.834C2779.2 750.132 2781.33 756.305 2783.92 762.355C2786.63 768.207 2789.78 774.112 2793.36 780.072L2794.23 783.378C2793.72 801.346 2795.55 818.281 2799.72 834.183C2801.87 842.369 2804.58 850.155 2807.86 857.539C2811.15 864.924 2815.12 872.044 2819.77 878.899L2820.83 882.914C2819.82 891.926 2819.63 900.811 2820.24 909.568C2821.01 918.284 2822.49 926.814 2824.68 935.158C2828.85 951.06 2835.73 966.082 2845.33 980.224L2846.95 982.574L2846.5 984.711C2846.43 985.067 2845.93 986.711 2845.02 989.643C2844.07 992.417 2842.15 995.696 2839.27 999.479C2836.39 1003.26 2832.19 1007.14 2826.67 1011.11C2821.11 1014.92 2813.76 1018.03 2804.63 1020.42C2797.07 1022.4 2790.43 1023.39 2784.71 1023.37C2778.94 1023.2 2773.92 1022.33 2769.64 1020.76L2767.28 1021.38C2763.02 1022.5 2759.14 1023.09 2755.63 1023.17C2752.08 1023.09 2749.07 1022.87 2746.62 1022.51C2744.13 1021.98 2742.13 1021.41 2740.62 1020.8C2739.23 1019.98 2738.41 1019.44 2738.17 1019.17L2735.91 1018.25L2735.3 1015.88C2730.3 1000.03 2722.97 985.547 2713.3 972.433C2703.64 959.318 2691.34 947.062 2676.41 935.665L2674.84 933.551C2670.15 923.341 2664.83 913.966 2658.89 905.428C2653.11 896.848 2646.62 888.79 2639.43 881.253C2641.68 888.57 2644.27 895.548 2647.19 902.186C2650.26 908.783 2653.95 915.137 2658.24 921.246L2659.74 923.124L2659.29 925.261C2658.41 934.075 2658.33 942.761 2659.06 951.319C2659.75 959.72 2661.18 968.092 2663.37 976.437C2665.52 984.624 2668.27 992.567 2671.64 1000.27C2674.96 1007.81 2679.17 1015.2 2684.27 1022.45L2685.89 1024.8L2685.44 1026.93C2685.37 1027.29 2684.87 1028.93 2683.96 1031.87C2683 1034.64 2681.09 1037.92 2678.21 1041.7C2675.33 1045.49 2671.05 1049.38 2665.37 1053.4C2659.81 1057.21 2652.39 1060.33 2643.1 1062.77C2633.81 1065.2 2625.78 1066.05 2619.02 1065.29C2612.38 1064.34 2606.86 1062.85 2602.45 1060.8C2598.16 1058.56 2594.98 1056.37 2592.9 1054.22C2590.82 1052.07 2589.74 1050.84 2589.66 1050.53L2588.1 1048.41L2588.49 1046.04C2589.84 1036.43 2590.18 1026.84 2589.52 1017.25C2588.86 1007.66 2587.25 997.991 2584.69 988.23C2582.95 981.618 2580.83 975.108 2578.31 968.702C2575.9 962.097 2572.91 955.48 2569.32 948.849L2568.57 946.015C2568.4 937.648 2567.87 929.541 2566.99 921.695C2566.23 913.65 2564.9 906.007 2563 898.764C2560.77 890.263 2557.9 882.183 2554.37 874.525C2550.85 866.867 2546.86 859.333 2542.39 851.922L2541.42 850.157L2541.87 848.02C2544.1 828.927 2542.97 810.799 2538.47 793.639C2536.65 786.711 2534.33 780.086 2531.49 773.762C2528.77 767.24 2525.38 760.725 2521.32 754.218L2519.57 751.396L2520.84 748.539C2520.96 748.34 2521.66 747.148 2522.93 744.962C2524.17 742.619 2526.25 739.97 2529.18 737.015C2532.22 733.861 2536.21 730.796 2541.15 727.818C2546.05 724.683 2552.2 722.146 2559.6 720.206C2566.69 718.348 2572.98 717.625 2578.47 718.036C2584.08 718.249 2588.98 718.982 2593.18 720.237L2596.96 719.247C2603.57 717.513 2609.05 716.918 2613.4 717.46C2617.71 717.845 2620.06 718.154 2620.46 718.386L2623.9 718.999L2625.11 721.709C2636.92 753.275 2655.32 777.561 2680.3 794.567L2682.09 795.612L2682.46 797.029C2693.33 821.776 2707.28 841.929 2724.31 857.486L2724.19 857.014C2721.96 848.512 2719.16 840.411 2715.8 832.712C2712.43 825.013 2708.47 817.301 2703.93 809.575L2702.93 805.797C2705.16 786.704 2703.95 768.262 2699.28 750.471C2695.73 736.931 2690.26 724.064 2682.86 711.871L2681.11 709.049L2682.38 706.192C2682.49 705.993 2683.19 704.801 2684.47 702.615C2685.7 700.272 2687.79 697.623 2690.71 694.668C2693.76 691.515 2697.75 688.449 2702.69 685.471C2707.59 682.336 2713.74 679.799 2721.14 677.859C2728.54 675.919 2735.26 675.25 2741.31 675.852C2747.31 676.297 2752.51 677.205 2756.91 678.576C2761.31 679.947 2764.72 681.408 2767.15 682.96C2769.57 684.511 2770.88 685.345 2771.08 685.461L2773.65 687.563Z" fill="white" fill-opacity="0.43"/>
</svg>
